<?xml version="1.0" encoding="UTF-8" standalone="no"?>
<!DOCTYPE svg PUBLIC "-//W3C//DTD SVG 1.1//EN"
 "http://www.w3.org/Graphics/SVG/1.1/DTD/svg11.dtd">
<!-- Generated by graphviz version 2.47.0 (20210316.0004)
 -->
<!-- Title: dependencies Pages: 1 -->
<svg width="504pt" height="284pt"
 viewBox="0.00 0.00 504.00 284.00" xmlns="http://www.w3.org/2000/svg" xmlns:xlink="http://www.w3.org/1999/xlink">
<g id="graph0" class="graph" transform="scale(1 1) rotate(0) translate(4 280)">
<title>dependencies</title>
<polygon fill="white" stroke="transparent" points="-4,4 -4,-280 500,-280 500,4 -4,4"/>
<text text-anchor="start" x="227.01" y="-42.4" font-family="Times-12" font-weight="bold" font-size="14.00">Legend</text>
<polygon fill="#ffffb3" stroke="transparent" points="14,-10 14,-30 34,-30 34,-10 14,-10"/>
<text text-anchor="start" x="37.63" y="-15.4" font-family="Times-12" font-size="14.00"> &#160;Declarations</text>
<polygon fill="#8dd3c7" stroke="transparent" points="127,-10 127,-30 147,-30 147,-10 127,-10"/>
<text text-anchor="start" x="150.73" y="-15.4" font-family="Times-12" font-size="14.00"> &#160;Module</text>
<polygon fill="#80b1d3" stroke="transparent" points="213,-10 213,-30 233,-30 233,-10 213,-10"/>
<text text-anchor="start" x="236.78" y="-15.4" font-family="Times-12" font-size="14.00"> &#160;Bootstrap</text>
<polygon fill="#fdb462" stroke="transparent" points="310,-10 310,-30 330,-30 330,-10 310,-10"/>
<text text-anchor="start" x="333.67" y="-15.4" font-family="Times-12" font-size="14.00"> &#160;Providers</text>
<polygon fill="#fb8072" stroke="transparent" points="406,-10 406,-30 426,-30 426,-10 406,-10"/>
<text text-anchor="start" x="429.73" y="-15.4" font-family="Times-12" font-size="14.00"> &#160;Exports</text>
<g id="clust1" class="cluster">
<title>cluster_CacheModule</title>
<polygon fill="none" stroke="black" stroke-dasharray="1,5" points="136,-70 136,-268 360,-268 360,-70 136,-70"/>
</g>
<g id="clust3" class="cluster">
<title>cluster_CacheModule_imports</title>
<polygon fill="none" stroke="black" points="144,-78 144,-130 352,-130 352,-78 144,-78"/>
</g>
<g id="clust4" class="cluster">
<title>cluster_CacheModule_exports</title>
<polygon fill="none" stroke="black" points="192,-208 192,-260 304,-260 304,-208 192,-208"/>
</g>
<!-- LogModule -->
<g id="node1" class="node">
<title>LogModule</title>
<polygon fill="#8dd3c7" stroke="black" points="344.1,-122 341.1,-126 320.1,-126 317.1,-122 261.9,-122 261.9,-86 344.1,-86 344.1,-122"/>
<text text-anchor="middle" x="303" y="-99.8" font-family="Times,serif" font-size="14.00">LogModule</text>
</g>
<!-- CacheModule -->
<g id="node3" class="node">
<title>CacheModule</title>
<polygon fill="#8dd3c7" stroke="black" points="295.03,-187 292.03,-191 271.03,-191 268.03,-187 200.97,-187 200.97,-151 295.03,-151 295.03,-187"/>
<text text-anchor="middle" x="248" y="-164.8" font-family="Times,serif" font-size="14.00">CacheModule</text>
</g>
<!-- LogModule&#45;&gt;CacheModule -->
<g id="edge1" class="edge">
<title>LogModule&#45;&gt;CacheModule</title>
<path fill="none" stroke="black" d="M278.61,-122.11C278.61,-122.11 278.61,-140.99 278.61,-140.99"/>
<polygon fill="black" stroke="black" points="275.11,-140.99 278.61,-150.99 282.11,-140.99 275.11,-140.99"/>
</g>
<!-- RedisModule -->
<g id="node2" class="node">
<title>RedisModule</title>
<polygon fill="#8dd3c7" stroke="black" points="243.94,-122 240.94,-126 219.94,-126 216.94,-122 152.06,-122 152.06,-86 243.94,-86 243.94,-122"/>
<text text-anchor="middle" x="198" y="-99.8" font-family="Times,serif" font-size="14.00">RedisModule</text>
</g>
<!-- RedisModule&#45;&gt;CacheModule -->
<g id="edge2" class="edge">
<title>RedisModule&#45;&gt;CacheModule</title>
<path fill="none" stroke="black" d="M222.23,-122.11C222.23,-122.11 222.23,-140.99 222.23,-140.99"/>
<polygon fill="black" stroke="black" points="218.73,-140.99 222.23,-150.99 225.73,-140.99 218.73,-140.99"/>
</g>
<!-- CacheService  -->
<g id="node4" class="node">
<title>CacheService </title>
<polygon fill="#fb8072" stroke="black" points="296.46,-252 199.54,-252 199.54,-216 296.46,-216 296.46,-252"/>
<text text-anchor="middle" x="248" y="-229.8" font-family="Times,serif" font-size="14.00">CacheService </text>
</g>
<!-- CacheModule&#45;&gt;CacheService  -->
<g id="edge3" class="edge">
<title>CacheModule&#45;&gt;CacheService </title>
<path fill="none" stroke="black" stroke-dasharray="5,2" d="M248,-187.11C248,-187.11 248,-205.99 248,-205.99"/>
<polygon fill="black" stroke="black" points="244.5,-205.99 248,-215.99 251.5,-205.99 244.5,-205.99"/>
</g>
</g>
</svg>
