<svg width="40" height="40" viewBox="0 0 40 40" fill="none" xmlns="http://www.w3.org/2000/svg">
    <path d="M9.29175 18.275L11.7334 16.0084L14.4501 18.6834L22.5001 11.2584L30.7084 19.1167V6.00836H9.29175V18.275ZM16.4167 8.27503C16.8968 8.26699 17.3686 8.40116 17.7726 8.66065C18.1765 8.92014 18.4947 9.29335 18.6871 9.73329C18.8794 10.1732 18.9373 10.6602 18.8534 11.133C18.7696 11.6058 18.5477 12.0432 18.2158 12.3901C17.8839 12.7371 17.4567 12.9781 16.9881 13.0828C16.5196 13.1875 16.0305 13.1512 15.5824 12.9786C15.1344 12.8059 14.7475 12.5045 14.4703 12.1124C14.1932 11.7203 14.0383 11.255 14.0251 10.775V10.6667C14.025 10.0301 14.2762 9.41913 14.724 8.96663C15.1719 8.51413 15.7802 8.25661 16.4167 8.25003V8.27503Z"
          stroke="#D2D2D2" stroke-width="0.833333" stroke-linecap="round" stroke-linejoin="round"/>
    <path d="M33.3334 19.9C33.3334 20.342 33.1578 20.7659 32.8453 21.0785C32.5327 21.3911 32.1088 21.5666 31.6667 21.5666H8.33341C7.89139 21.5666 7.46746 21.3911 7.1549 21.0785C6.84234 20.7659 6.66675 20.342 6.66675 19.9M12.3584 25.8416H17.7167M17.7167 29.2833H12.3584M12.3584 32.5H17.7834M23.7084 26.7416L28.4834 31.5166M23.6917 31.55L28.4667 26.775M31.6667 3.33331H8.33341C7.89139 3.33331 7.46746 3.50891 7.1549 3.82147C6.84234 4.13403 6.66675 4.55795 6.66675 4.99998V35C6.66675 35.442 6.84234 35.8659 7.1549 36.1785C7.46746 36.4911 7.89139 36.6666 8.33341 36.6666H31.6667C32.1088 36.6666 32.5327 36.4911 32.8453 36.1785C33.1578 35.8659 33.3334 35.442 33.3334 35V4.99998C33.3334 4.55795 33.1578 4.13403 32.8453 3.82147C32.5327 3.50891 32.1088 3.33331 31.6667 3.33331ZM26.0667 34.275C25.3954 34.2838 24.729 34.1593 24.1061 33.9087C23.4832 33.6582 22.9162 33.2865 22.438 32.8153C21.9597 32.344 21.5798 31.7825 21.3201 31.1634C21.0604 30.5442 20.9261 29.8797 20.9251 29.2083C20.9102 28.1883 21.1991 27.187 21.7549 26.3316C22.3108 25.4763 23.1085 24.8056 24.0466 24.4049C24.9847 24.0042 26.0208 23.8916 27.0231 24.0815C28.0253 24.2713 28.9485 24.755 29.6751 25.471C30.4017 26.187 30.8989 27.1029 31.1034 28.1023C31.308 29.1017 31.2106 30.1393 30.8238 31.0832C30.4369 32.0271 29.778 32.8346 28.9309 33.403C28.0839 33.9713 27.0868 34.2749 26.0667 34.275Z"
          stroke="#D2D2D2" stroke-width="0.833333" stroke-linecap="round" stroke-linejoin="round"/>
    <path d="M9.91675 33.125C9.75099 33.125 9.59202 33.0592 9.47481 32.9419C9.3576 32.8247 9.29175 32.6658 9.29175 32.5C9.29175 32.3342 9.3576 32.1753 9.47481 32.0581C9.59202 31.9409 9.75099 31.875 9.91675 31.875C10.0825 31.875 10.2415 31.9409 10.3587 32.0581C10.4759 32.1753 10.5417 32.3342 10.5417 32.5C10.5417 32.6658 10.4759 32.8247 10.3587 32.9419C10.2415 33.0592 10.0825 33.125 9.91675 33.125ZM9.91675 29.9083C9.75099 29.9083 9.59202 29.8425 9.47481 29.7253C9.3576 29.6081 9.29175 29.4491 9.29175 29.2833C9.29175 29.1176 9.3576 28.9586 9.47481 28.8414C9.59202 28.7242 9.75099 28.6583 9.91675 28.6583C10.0811 28.6583 10.2388 28.723 10.3558 28.8384C10.4727 28.9539 10.5396 29.1107 10.5417 29.275C10.5396 29.4409 10.4734 29.5995 10.3569 29.7176C10.2403 29.8357 10.0826 29.904 9.91675 29.9083ZM9.91675 26.4583C9.75099 26.4583 9.59202 26.3925 9.47481 26.2753C9.3576 26.1581 9.29175 25.9991 9.29175 25.8333C9.29174 25.7516 9.30796 25.6708 9.33947 25.5954C9.37098 25.52 9.41715 25.4517 9.4753 25.3943C9.53345 25.3369 9.60242 25.2917 9.6782 25.2612C9.75398 25.2307 9.83507 25.2156 9.91675 25.2167C10.0825 25.2167 10.2415 25.2825 10.3587 25.3997C10.4759 25.5169 10.5417 25.6759 10.5417 25.8417C10.5354 26.0046 10.4673 26.1591 10.3512 26.2736C10.2351 26.3882 10.0798 26.4542 9.91675 26.4583Z"
          fill="#D2D2D2"/>
</svg>
