<svg width="40" height="40" viewBox="0 0 40 40" fill="none" xmlns="http://www.w3.org/2000/svg">
    <path d="M24.9418 12.9333L26.2334 11.6667L28.2084 13.65L26.9168 14.9167M22.6168 13.95L24.2834 12.2833L27.6168 15.6167L25.9501 17.2833M21.0751 21.8416L19.3334 23.5833L16.2751 20.5083L18.0251 18.775M10.2751 29.5583C9.81678 29.1 9.31678 28.8583 8.93345 29.2417C8.55011 29.625 8.77511 30.1083 9.26678 30.5667C9.75845 31.025 10.2001 31.3083 10.5918 30.9083C10.9918 30.4917 10.7334 30.0167 10.2751 29.5583ZM10.2751 29.5583L13.5501 26.325M22.3251 15.55L19.5501 18.3333M24.3251 17.55L21.5501 20.3083M6.60011 6.52498L16.3084 16.2333M23.6834 23.775L33.3918 33.4833M21.9084 13.225L26.6668 17.9917L21.9168 22.7083L17.2001 17.975L21.9084 13.225ZM8.55011 4.56665L18.2584 14.2917L14.3751 18.1666L4.65845 8.45832L8.55011 4.56665ZM25.6251 21.8167L35.3418 31.5416L31.4501 35.4167L21.7418 25.7083L25.6251 21.8167Z"
          stroke="#D2D2D2" stroke-width="0.833333" stroke-linecap="round" stroke-linejoin="round"/>
</svg>
