<svg width="40" height="40" viewBox="0 0 40 40" fill="none" xmlns="http://www.w3.org/2000/svg">
    <path d="M36.25 27.5H30C29.3373 27.499 28.702 27.2353 28.2333 26.7667C27.7647 26.298 27.501 25.6627 27.5 25V17.5C27.5007 16.8372 27.7643 16.2017 28.233 15.733C28.7017 15.2643 29.3372 15.0007 30 15H36.25V17.5H30V25H36.25V27.5ZM22.5 15H17.5V10H15V27.5H22.5C23.1627 27.499 23.798 27.2353 24.2667 26.7667C24.7353 26.298 24.999 25.6627 25 25V17.5C24.9993 16.8372 24.7357 16.2017 24.267 15.733C23.7983 15.2643 23.1628 15.0007 22.5 15ZM17.5 25V17.5H22.5V25H17.5ZM10 15H3.75V17.5H10V20H5C4.33696 20 3.70107 20.2634 3.23223 20.7322C2.76339 21.2011 2.5 21.837 2.5 22.5V25C2.5 25.663 2.76339 26.2989 3.23223 26.7678C3.70107 27.2366 4.33696 27.5 5 27.5H12.5V17.5C12.4993 16.8372 12.2357 16.2017 11.767 15.733C11.2983 15.2643 10.6628 15.0007 10 15ZM10 25H5V22.5H10V25Z"
          fill="#D2D2D2"/>
</svg>
