<svg width="40" height="40" viewBox="0 0 40 40" fill="none" xmlns="http://www.w3.org/2000/svg">
    <path d="M36.2499 35.8334H3.74992C2.97637 35.8334 2.2345 35.5261 1.68752 34.9791C1.14054 34.4321 0.833252 33.6902 0.833252 32.9167V7.08335C0.833252 5.47335 2.13992 4.16669 3.74992 4.16669H36.2499C37.8599 4.16669 39.1666 5.47335 39.1666 7.08335V32.9167C39.1666 33.6902 38.8593 34.4321 38.3123 34.9791C37.7653 35.5261 37.0235 35.8334 36.2499 35.8334ZM3.74992 6.66669C3.63941 6.66669 3.53343 6.71059 3.45529 6.78873C3.37715 6.86687 3.33325 6.97285 3.33325 7.08335V32.9167C3.33325 33.1467 3.51992 33.3334 3.74992 33.3334H9.04659L23.3333 18.295C23.6013 18.0126 23.9232 17.7868 24.2799 17.6308C24.6367 17.4749 25.021 17.392 25.4103 17.387C25.7996 17.382 26.186 17.4551 26.5466 17.6019C26.9072 17.7487 27.2348 17.9662 27.5099 18.2417L36.6666 27.4V7.08335C36.6666 6.97285 36.6227 6.86687 36.5445 6.78873C36.4664 6.71059 36.3604 6.66669 36.2499 6.66669H3.74992ZM36.6666 32.9167V30.9334L25.7416 20.01C25.7023 19.9706 25.6555 19.9395 25.604 19.9186C25.5524 19.8977 25.4972 19.8874 25.4416 19.8884C25.386 19.8886 25.3311 19.9001 25.2801 19.9222C25.2291 19.9442 25.1832 19.9764 25.1449 20.0167L12.4949 33.3334H36.2499C36.3604 33.3334 36.4664 33.2895 36.5445 33.2113C36.6227 33.1332 36.6666 33.0272 36.6666 32.9167ZM17.4999 15.4167C17.4999 16.8533 16.9292 18.231 15.9134 19.2468C14.8976 20.2627 13.5198 20.8334 12.0833 20.8334C10.6467 20.8334 9.26891 20.2627 8.25309 19.2468C7.23727 18.231 6.66659 16.8533 6.66659 15.4167C6.66659 13.9801 7.23727 12.6023 8.25309 11.5865C9.26891 10.5707 10.6467 10 12.0833 10C13.5198 10 14.8976 10.5707 15.9134 11.5865C16.9292 12.6023 17.4999 13.9801 17.4999 15.4167ZM14.9999 15.4167C14.9998 15.0336 14.9242 14.6542 14.7775 14.3003C14.6308 13.9463 14.4158 13.6248 14.1448 13.3539C13.8738 13.0831 13.5521 12.8683 13.1981 12.7218C12.8441 12.5753 12.4647 12.4999 12.0816 12.5C11.6985 12.5001 11.3191 12.5757 10.9652 12.7224C10.6112 12.8691 10.2897 13.0841 10.0188 13.3551C9.74801 13.6261 9.5332 13.9478 9.38668 14.3018C9.24016 14.6558 9.16481 15.0352 9.16492 15.4184C9.16514 16.1921 9.47273 16.9341 10.02 17.4811C10.5673 18.0281 11.3095 18.3352 12.0833 18.335C12.857 18.3348 13.599 18.0272 14.146 17.4799C14.693 16.9326 15.0001 16.1905 14.9999 15.4167Z"
          fill="#D2D2D2"/>
</svg>
