<svg width="40" height="40" viewBox="0 0 40 40" fill="none" xmlns="http://www.w3.org/2000/svg">
    <path d="M14.9234 33.3333H8.33341C7.86564 33.3333 7.47119 33.1722 7.15008 32.85C6.82786 32.53 6.66675 32.1355 6.66675 31.6667V25.0766C7.61564 24.7989 8.40841 24.2739 9.04508 23.5017C9.68175 22.7294 10.0001 21.84 10.0001 20.8333C10.0001 19.8267 9.68175 18.9372 9.04508 18.165C8.40841 17.3928 7.61564 16.8678 6.66675 16.59V9.99998C6.66675 9.53221 6.82786 9.13776 7.15008 8.81665C7.47008 8.49443 7.86453 8.33332 8.33341 8.33332H15.0001C15.3001 7.37998 15.8256 6.61832 16.5767 6.04832C17.329 5.47721 18.1923 5.19165 19.1667 5.19165C20.1412 5.19165 21.0045 5.47721 21.7567 6.04832C22.5079 6.61832 23.0334 7.37998 23.3334 8.33332H30.0001C30.4679 8.33332 30.8623 8.49443 31.1834 8.81665C31.5056 9.13776 31.6667 9.53221 31.6667 9.99998V16.6667C32.6201 16.9667 33.3817 17.4922 33.9517 18.2433C34.5229 18.9955 34.8084 19.8589 34.8084 20.8333C34.8084 21.8078 34.5229 22.6711 33.9517 23.4233C33.3817 24.1744 32.6201 24.7 31.6667 25V31.6667C31.6667 32.1344 31.5056 32.5289 31.1834 32.85C30.8623 33.1722 30.4679 33.3333 30.0001 33.3333H23.4101C23.1101 32.3289 22.5712 31.5222 21.7934 30.9133C21.0145 30.3044 20.139 30 19.1667 30C18.1945 30 17.319 30.3044 16.5401 30.9133C15.7623 31.5222 15.2234 32.3289 14.9234 33.3333ZM8.33341 31.6667H13.8301C14.3045 30.56 15.0379 29.7278 16.0301 29.17C17.0212 28.6122 18.0667 28.3333 19.1667 28.3333C20.2667 28.3333 21.3129 28.6122 22.3051 29.17C23.2962 29.7278 24.029 30.56 24.5034 31.6667H30.0001V23.525H30.7701C31.569 23.3972 32.1634 23.0683 32.5534 22.5383C32.9456 22.0083 33.1417 21.44 33.1417 20.8333C33.1417 20.2267 32.9462 19.6583 32.5551 19.1283C32.164 18.5983 31.569 18.2694 30.7701 18.1417H30.0001V9.99998H21.8584V9.22998C21.7306 8.43109 21.4017 7.83665 20.8717 7.44665C20.3417 7.05443 19.7734 6.85832 19.1667 6.85832C18.5601 6.85832 17.9917 7.05387 17.4617 7.44498C16.9317 7.83721 16.6029 8.43221 16.4751 9.22998V9.99998H8.33341V15.4617C9.36341 15.9528 10.1762 16.6861 10.7717 17.6617C11.3684 18.6339 11.6667 19.6911 11.6667 20.8333C11.6667 21.9678 11.3684 23.0222 10.7717 23.9966C10.1762 24.9711 9.36341 25.7072 8.33341 26.205V31.6667Z"
          fill="#D2D2D2"/>
</svg>
