<svg width="40" height="40" viewBox="0 0 40 40" fill="none" xmlns="http://www.w3.org/2000/svg">
    <path fill-rule="evenodd" clip-rule="evenodd"
          d="M10.3225 9.435C10.3225 8.3675 11.19 7.5 12.2575 7.5H27.7425C28.2557 7.5 28.7479 7.70387 29.1107 8.06675C29.4736 8.42963 29.6775 8.92181 29.6775 9.435C29.6775 9.94819 29.4736 10.4404 29.1107 10.8033C28.7479 11.1661 28.2557 11.37 27.7425 11.37H21.935V30.08C21.935 30.5932 21.7311 31.0854 21.3682 31.4483C21.0054 31.8111 20.5132 32.015 20 32.015C19.4868 32.015 18.9946 31.8111 18.6317 31.4483C18.2689 31.0854 18.065 30.5932 18.065 30.08V11.37H12.2575C11.7443 11.37 11.2521 11.1661 10.8892 10.8033C10.5264 10.4404 10.3225 9.94819 10.3225 9.435ZM8.46499 13.2275C8.64482 13.4072 8.78748 13.6206 8.88481 13.8554C8.98214 14.0903 9.03224 14.342 9.03224 14.5963C9.03224 14.8505 8.98214 15.1022 8.88481 15.3371C8.78748 15.5719 8.64482 15.7853 8.46499 15.965L4.67499 19.7575L8.46499 23.55C8.64474 23.7297 8.78732 23.9431 8.8846 24.178C8.98188 24.4128 9.03195 24.6645 9.03195 24.9187C9.03195 25.1729 8.98188 25.4247 8.8846 25.6595C8.78732 25.8944 8.64474 26.1078 8.46499 26.2875C8.28524 26.4672 8.07185 26.6098 7.837 26.7071C7.60215 26.8044 7.35044 26.8545 7.09624 26.8545C6.84204 26.8545 6.59033 26.8044 6.35548 26.7071C6.12063 26.6098 5.90724 26.4672 5.72749 26.2875L0.567491 21.1275C0.38766 20.9478 0.245003 20.7344 0.147672 20.4996C0.0503411 20.2647 0.000244141 20.013 0.000244141 19.7588C0.000244141 19.5045 0.0503411 19.2528 0.147672 19.0179C0.245003 18.7831 0.38766 18.5697 0.567491 18.39L5.72499 13.225C5.90469 13.0452 6.11807 12.9025 6.35292 12.8052C6.58778 12.7078 6.83951 12.6578 7.09374 12.6578C7.34797 12.6578 7.5997 12.7078 7.83456 12.8052C8.06942 12.9025 8.28279 13.0452 8.46249 13.225M31.5325 13.225C31.7122 13.0452 31.9256 12.9025 32.1604 12.8052C32.3953 12.7078 32.647 12.6578 32.9012 12.6578C33.1555 12.6578 33.4072 12.7078 33.6421 12.8052C33.8769 12.9025 34.0903 13.0452 34.27 13.225L39.43 18.3875C39.6098 18.5672 39.7525 18.7806 39.8498 19.0154C39.9471 19.2503 39.9972 19.502 39.9972 19.7563C39.9972 20.0105 39.9471 20.2622 39.8498 20.4971C39.7525 20.7319 39.6098 20.9453 39.43 21.125L34.27 26.285C33.907 26.648 33.4146 26.852 32.9012 26.852C32.3879 26.852 31.8955 26.648 31.5325 26.285C31.1695 25.922 30.9655 25.4296 30.9655 24.9163C30.9655 24.4029 31.1695 23.9105 31.5325 23.5475L35.325 19.755L31.5325 15.9625C31.3527 15.7828 31.21 15.5694 31.1127 15.3346C31.0153 15.0997 30.9652 14.848 30.9652 14.5938C30.9652 14.3395 31.0153 14.0878 31.1127 13.8529C31.21 13.6181 31.3527 13.4047 31.5325 13.225Z"
          fill="#D2D2D2"/>
</svg>
