<svg width="40" height="40" viewBox="0 0 40 40" fill="none" xmlns="http://www.w3.org/2000/svg">
    <path d="M7.69167 30H32.3083C32.5639 30 32.7989 29.8933 33.0133 29.68C33.2267 29.4655 33.3333 29.2305 33.3333 28.975V16.6666H21.6667V9.99998H7.69167C7.43611 9.99998 7.20111 10.1066 6.98667 10.32C6.77333 10.5344 6.66667 10.7694 6.66667 11.025V28.975C6.66667 29.2305 6.77333 29.4655 6.98667 29.68C7.20111 29.8933 7.43611 30 7.69167 30ZM7.69167 31.6666C6.925 31.6666 6.285 31.41 5.77167 30.8966C5.25722 30.3822 5 29.7416 5 28.975V11.025C5 10.2583 5.25722 9.61831 5.77167 9.10498C6.285 8.59053 6.925 8.33331 7.69167 8.33331H32.3083C33.075 8.33331 33.715 8.59053 34.2283 9.10498C34.7428 9.61831 35 10.2583 35 11.025V28.975C35 29.7416 34.7433 30.3816 34.23 30.895C33.7156 31.4094 33.075 31.6666 32.3083 31.6666H7.69167Z"
          fill="#D2D2D2"/>
</svg>
