<svg width="40" height="40" viewBox="0 0 40 40" fill="none" xmlns="http://www.w3.org/2000/svg">
    <g clip-path="url(#clip0_107_145)">
        <path d="M24.1338 4.01248C23.9403 3.17727 23.458 2.43727 22.7719 1.92306C22.0859 1.40884 21.2403 1.15347 20.3843 1.202C19.5284 1.25053 18.7171 1.59985 18.0936 2.18831C17.4701 2.77677 17.0745 3.56655 16.9766 4.41828C16.8786 5.27001 17.0847 6.12896 17.5585 6.84354C18.0322 7.55812 18.7431 8.08241 19.5657 8.3239C20.3883 8.56538 21.2698 8.50854 22.0546 8.16339C22.8394 7.81825 23.4771 7.20699 23.8551 6.43748C26.1565 6.9611 28.2958 8.03688 30.0886 9.57198C31.8813 11.1071 33.2735 13.0554 34.1451 15.2487L36.3638 14.3762C35.3372 11.7747 33.6834 9.46732 31.5497 7.65922C29.416 5.85112 26.8685 4.5984 24.1338 4.01248ZM20.6064 6.05998C20.4439 6.0652 20.2821 6.03771 20.1305 5.97916C19.9789 5.9206 19.8407 5.83217 19.7239 5.71913C19.6072 5.60608 19.5144 5.47072 19.451 5.32109C19.3876 5.17146 19.3549 5.01061 19.3549 4.8481C19.3549 4.6856 19.3876 4.52475 19.451 4.37512C19.5144 4.22549 19.6072 4.09013 19.7239 3.97708C19.8407 3.86404 19.9789 3.77561 20.1305 3.71705C20.2821 3.6585 20.4439 3.63101 20.6064 3.63623C20.9279 3.63623 21.2363 3.76398 21.4637 3.99136C21.6911 4.21875 21.8189 4.52715 21.8189 4.84873C21.8189 5.1703 21.6911 5.47871 21.4637 5.7061C21.2363 5.93348 20.9279 6.05998 20.6064 6.05998ZM15.2726 7.06748L14.3764 4.84998C11.7749 5.87667 9.46744 7.53041 7.65934 9.6641C5.85124 11.7978 4.59852 14.3453 4.0126 17.08C3.17739 17.2735 2.43739 17.7559 1.92318 18.4419C1.40897 19.1279 1.15359 19.9735 1.20212 20.8295C1.25066 21.6854 1.59997 22.4968 2.18843 23.1203C2.77689 23.7438 3.56667 24.1394 4.4184 24.2373C5.27014 24.3352 6.12908 24.1291 6.84366 23.6554C7.55824 23.1817 8.08254 22.4708 8.32402 21.6481C8.5655 20.8255 8.50866 19.944 8.16351 19.1592C7.81837 18.3744 7.20711 17.7367 6.4376 17.3587C6.96337 15.0546 8.04267 12.9134 9.58208 11.1202C11.1215 9.32707 13.0747 7.93603 15.2726 7.06748ZM4.8476 21.82C4.68837 21.82 4.53071 21.7886 4.3836 21.7277C4.23649 21.6668 4.10283 21.5774 3.99023 21.4648C3.87764 21.3523 3.78833 21.2186 3.7274 21.0715C3.66646 20.9244 3.6351 20.7667 3.6351 20.6075C3.6351 20.4483 3.66646 20.2906 3.7274 20.1435C3.78833 19.9964 3.87764 19.8627 3.99023 19.7501C4.10283 19.6375 4.23649 19.5482 4.3836 19.4873C4.53071 19.4263 4.68837 19.395 4.8476 19.395C5.16918 19.395 5.47758 19.5227 5.70497 19.7501C5.93236 19.9775 6.0601 20.2859 6.0601 20.6075C6.0601 20.9291 5.93236 21.2375 5.70497 21.4648C5.47758 21.6922 5.16918 21.82 4.8476 21.82ZM20.6064 32.7287C19.9301 32.7309 19.2679 32.9216 18.694 33.2793C18.1202 33.637 17.6574 34.1476 17.3576 34.7537C15.0559 34.2302 12.9162 33.1543 11.1232 31.6189C9.33024 30.0836 7.93788 28.135 7.06635 25.9412L4.84885 26.8375C5.87888 29.4434 7.53816 31.7536 9.67855 33.5621C11.8189 35.3705 14.3738 36.6207 17.1151 37.2012C17.2726 37.8686 17.6154 38.4778 18.1042 38.9587C18.5929 39.4396 19.2076 39.7726 19.8774 39.9192C20.5472 40.0659 21.2448 40.0202 21.8898 39.7876C22.5347 39.5549 23.1008 39.1446 23.5227 38.6042C23.9446 38.0637 24.2052 37.4149 24.2743 36.7328C24.3435 36.0506 24.2184 35.3628 23.9136 34.7486C23.6087 34.1345 23.1365 33.619 22.5514 33.2616C21.9662 32.9042 21.2919 32.7195 20.6064 32.7287ZM20.6064 37.5775C20.2848 37.5775 19.9764 37.4497 19.749 37.2223C19.5216 36.995 19.3939 36.6866 19.3939 36.365C19.3939 36.0434 19.5216 35.735 19.749 35.5076C19.9764 35.2802 20.2848 35.1525 20.6064 35.1525C20.9279 35.1525 21.2363 35.2802 21.4637 35.5076C21.6911 35.735 21.8189 36.0434 21.8189 36.365C21.8189 36.6866 21.6911 36.995 21.4637 37.2223C21.2363 37.4497 20.9279 37.5775 20.6064 37.5775ZM40.0001 20.6062C40.0023 19.9572 39.8308 19.3194 39.5035 18.759C39.1761 18.1986 38.7047 17.736 38.1383 17.4192C37.5719 17.1023 36.931 16.9428 36.2821 16.9572C35.6333 16.9716 35.0001 17.1593 34.4482 17.5008C33.8963 17.8424 33.4459 18.3254 33.1437 18.8998C32.8414 19.4741 32.6983 20.1189 32.7293 20.7672C32.7602 21.4154 32.964 22.0436 33.3196 22.5866C33.6751 23.1296 34.1695 23.5675 34.7514 23.855C34.2276 26.1565 33.1516 28.2959 31.6163 30.0887C30.081 31.8814 28.1324 33.2736 25.9388 34.145L26.8363 36.3637C29.4422 35.3337 31.7525 33.6744 33.5609 31.534C35.3693 29.3936 36.6196 26.8388 37.2001 24.0975C37.9892 23.9109 38.6933 23.466 39.2006 22.8334C39.7079 22.2009 39.9893 21.417 40.0001 20.6062ZM36.3626 21.8187C36.041 21.8187 35.7326 21.691 35.5052 21.4636C35.2778 21.2362 35.1501 20.9278 35.1501 20.6062C35.1501 20.2847 35.2778 19.9763 35.5052 19.7489C35.7326 19.5215 36.041 19.3937 36.3626 19.3937C36.6842 19.3937 36.9926 19.5215 37.22 19.7489C37.4474 19.9763 37.5751 20.2847 37.5751 20.6062C37.5751 20.9278 37.4474 21.2362 37.22 21.4636C36.9926 21.691 36.6842 21.8187 36.3626 21.8187Z"
              fill="#D2D2D2"/>
        <path d="M23.9874 20.4375C24.6771 19.7641 25.1504 18.9004 25.3469 17.9567C25.5434 17.013 25.4541 16.0322 25.0906 15.1395C24.727 14.2468 24.1056 13.4827 23.3057 12.9448C22.5059 12.4069 21.5638 12.1196 20.5999 12.1196C19.636 12.1196 18.694 12.4069 17.8941 12.9448C17.0942 13.4827 16.4729 14.2468 16.1093 15.1395C15.7457 16.0322 15.6565 17.013 15.853 17.9567C16.0495 18.9004 16.5228 19.7641 17.2124 20.4375C16.3915 20.9921 15.7191 21.7395 15.2541 22.6142C14.7891 23.4889 14.5456 24.4643 14.5449 25.455V27.8787H26.6662V25.4538C26.6643 24.4621 26.4191 23.486 25.952 22.6112C25.485 21.7364 24.8104 20.9908 23.9874 20.4375ZM18.1812 16.9687C18.1812 16.6503 18.2439 16.335 18.3658 16.0407C18.4876 15.7465 18.6663 15.4792 18.8914 15.254C19.1166 15.0288 19.3839 14.8502 19.6782 14.7283C19.9724 14.6065 20.2877 14.5437 20.6062 14.5437C20.9246 14.5437 21.24 14.6065 21.5342 14.7283C21.8284 14.8502 22.0957 15.0288 22.3209 15.254C22.5461 15.4792 22.7247 15.7465 22.8466 16.0407C22.9684 16.335 23.0312 16.6503 23.0312 16.9687C23.0312 17.6119 22.7757 18.2287 22.3209 18.6835C21.8661 19.1383 21.2493 19.3937 20.6062 19.3937C19.963 19.3937 19.3462 19.1383 18.8914 18.6835C18.4367 18.2287 18.1812 17.6119 18.1812 16.9687ZM16.9687 25.4538C16.9597 24.9705 17.0472 24.4903 17.2259 24.0412C17.4047 23.5921 17.6711 23.1831 18.0097 22.8382C18.3483 22.4932 18.7523 22.2192 19.198 22.0322C19.6437 21.8452 20.1222 21.7488 20.6055 21.7488C21.0889 21.7488 21.5674 21.8452 22.0131 22.0322C22.4588 22.2192 22.8628 22.4932 23.2014 22.8382C23.54 23.1831 23.8064 23.5921 23.9852 24.0412C24.1639 24.4903 24.2514 24.9705 24.2424 25.4538H16.9687Z"
              fill="#D2D2D2"/>
    </g>
    <defs>
        <clipPath id="clip0_107_145">
            <rect width="40" height="40" fill="white"/>
        </clipPath>
    </defs>
</svg>
