<svg width="40" height="40" viewBox="0 0 40 40" fill="none" xmlns="http://www.w3.org/2000/svg">
    <path d="M29.0634 36.5617H10.9367C9.83162 36.5617 8.77181 36.1227 7.99041 35.3413C7.20901 34.5599 6.77002 33.5001 6.77002 32.395V31.0167C6.77002 24.4017 12.705 19.0167 20 19.0167C27.295 19.0167 33.23 24.3984 33.23 31.0167V32.395C33.23 33.5001 32.791 34.5599 32.0096 35.3413C31.2282 36.1227 30.1684 36.5617 29.0634 36.5617ZM20 20.6867C13.6234 20.6867 8.43669 25.32 8.43669 31.02V32.3984C8.43669 33.0614 8.70008 33.6973 9.16892 34.1661C9.63776 34.635 10.2736 34.8984 10.9367 34.8984H29.0634C29.7264 34.8984 30.3623 34.635 30.8311 34.1661C31.3 33.6973 31.5634 33.0614 31.5634 32.3984V31.0167C31.5634 25.32 26.3767 20.6867 20 20.6867ZM20 16.5184C18.7065 16.5187 17.4419 16.1354 16.3661 15.417C15.2904 14.6986 14.4519 13.6773 13.9567 12.4823C13.4614 11.2873 13.3317 9.97223 13.5838 8.70349C13.836 7.43474 14.4587 6.26927 15.3733 5.35447C16.2879 4.43967 17.4532 3.81663 18.7218 3.56414C19.9905 3.31166 21.3056 3.44108 22.5007 3.93603C23.6958 4.43097 24.7173 5.26922 25.436 6.34475C26.1547 7.42029 26.5384 8.6848 26.5384 9.97836C26.537 11.7122 25.8478 13.3746 24.622 14.6008C23.3961 15.8269 21.7338 16.5166 20 16.5184ZM20 5.10669C19.036 5.10636 18.0936 5.39194 17.2919 5.9273C16.4902 6.46266 15.8654 7.22376 15.4963 8.11431C15.1272 9.00486 15.0306 9.98487 15.2186 10.9304C15.4066 11.8758 15.8707 12.7443 16.5524 13.426C17.234 14.1076 18.1025 14.5718 19.048 14.7598C19.9935 14.9478 20.9735 14.8511 21.8641 14.4821C22.7546 14.113 23.5157 13.4881 24.0511 12.6865C24.5864 11.8848 24.872 10.9424 24.8717 9.97836C24.8704 8.68672 24.3567 7.44836 23.4433 6.53503C22.53 5.6217 21.2917 5.10801 20 5.10669Z"
          fill="#D2D2D2"/>
</svg>
