<?xml version="1.0" encoding="UTF-8" standalone="no"?>
<!DOCTYPE svg PUBLIC "-//W3C//DTD SVG 1.1//EN"
 "http://www.w3.org/Graphics/SVG/1.1/DTD/svg11.dtd">
<!-- Generated by graphviz version 2.47.0 (20210316.0004)
 -->
<!-- Title: dependencies Pages: 1 -->
<svg width="1831pt" height="355pt"
 viewBox="0.00 0.00 1831.00 355.00" xmlns="http://www.w3.org/2000/svg" xmlns:xlink="http://www.w3.org/1999/xlink">
<g id="graph0" class="graph" transform="scale(1 1) rotate(0) translate(4 351)">
<title>dependencies</title>
<polygon fill="white" stroke="transparent" points="-4,4 -4,-351 1827,-351 1827,4 -4,4"/>
<text text-anchor="start" x="890.51" y="-42.4" font-family="Times-12" font-weight="bold" font-size="14.00">Legend</text>
<polygon fill="#ffffb3" stroke="transparent" points="677.5,-10 677.5,-30 697.5,-30 697.5,-10 677.5,-10"/>
<text text-anchor="start" x="701.13" y="-15.4" font-family="Times-12" font-size="14.00"> &#160;Declarations</text>
<polygon fill="#8dd3c7" stroke="transparent" points="790.5,-10 790.5,-30 810.5,-30 810.5,-10 790.5,-10"/>
<text text-anchor="start" x="814.23" y="-15.4" font-family="Times-12" font-size="14.00"> &#160;Module</text>
<polygon fill="#80b1d3" stroke="transparent" points="876.5,-10 876.5,-30 896.5,-30 896.5,-10 876.5,-10"/>
<text text-anchor="start" x="900.28" y="-15.4" font-family="Times-12" font-size="14.00"> &#160;Bootstrap</text>
<polygon fill="#fdb462" stroke="transparent" points="973.5,-10 973.5,-30 993.5,-30 993.5,-10 973.5,-10"/>
<text text-anchor="start" x="997.17" y="-15.4" font-family="Times-12" font-size="14.00"> &#160;Providers</text>
<polygon fill="#fb8072" stroke="transparent" points="1069.5,-10 1069.5,-30 1089.5,-30 1089.5,-10 1069.5,-10"/>
<text text-anchor="start" x="1093.23" y="-15.4" font-family="Times-12" font-size="14.00"> &#160;Exports</text>
<g id="clust7" class="cluster">
<title>cluster_CacheModule</title>
<polygon fill="none" stroke="black" stroke-dasharray="1,5" points="8,-70 8,-271 232,-271 232,-70 8,-70"/>
</g>
<g id="clust9" class="cluster">
<title>cluster_CacheModule_imports</title>
<polygon fill="none" stroke="black" points="16,-78 16,-130 224,-130 224,-78 16,-78"/>
</g>
<g id="clust10" class="cluster">
<title>cluster_CacheModule_exports</title>
<polygon fill="none" stroke="black" points="97,-211 97,-263 209,-263 209,-211 97,-211"/>
</g>
<g id="clust19" class="cluster">
<title>cluster_CategoryModule</title>
<polygon fill="none" stroke="black" stroke-dasharray="1,5" points="1461,-70 1461,-271 1643,-271 1643,-70 1461,-70"/>
</g>
<g id="clust22" class="cluster">
<title>cluster_CategoryModule_exports</title>
<polygon fill="none" stroke="black" points="1478,-211 1478,-263 1606,-263 1606,-211 1478,-211"/>
</g>
<g id="clust24" class="cluster">
<title>cluster_CategoryModule_providers</title>
<polygon fill="none" stroke="black" points="1469,-78 1469,-130 1635,-130 1635,-78 1469,-78"/>
</g>
<g id="clust25" class="cluster">
<title>cluster_ConfigModule</title>
<polygon fill="none" stroke="black" stroke-dasharray="1,5" points="240,-138 240,-339 516,-339 516,-138 240,-138"/>
</g>
<g id="clust27" class="cluster">
<title>cluster_ConfigModule_imports</title>
<polygon fill="none" stroke="black" points="406,-146 406,-198 508,-198 508,-146 406,-146"/>
</g>
<g id="clust28" class="cluster">
<title>cluster_ConfigModule_exports</title>
<polygon fill="none" stroke="black" points="256,-279 256,-331 372,-331 372,-279 256,-279"/>
</g>
<g id="clust30" class="cluster">
<title>cluster_ConfigModule_providers</title>
<polygon fill="none" stroke="black" points="248,-146 248,-198 398,-198 398,-146 248,-146"/>
</g>
<g id="clust43" class="cluster">
<title>cluster_LocaleModule</title>
<polygon fill="none" stroke="black" stroke-dasharray="1,5" points="1651,-70 1651,-271 1815,-271 1815,-70 1651,-70"/>
</g>
<g id="clust46" class="cluster">
<title>cluster_LocaleModule_exports</title>
<polygon fill="none" stroke="black" points="1675,-211 1675,-263 1791,-263 1791,-211 1675,-211"/>
</g>
<g id="clust48" class="cluster">
<title>cluster_LocaleModule_providers</title>
<polygon fill="none" stroke="black" points="1659,-78 1659,-130 1807,-130 1807,-78 1659,-78"/>
</g>
<g id="clust61" class="cluster">
<title>cluster_MessagesBrokerModule</title>
<polygon fill="none" stroke="black" stroke-dasharray="1,5" points="1149,-146 1149,-198 1317,-198 1317,-146 1149,-146"/>
</g>
<g id="clust67" class="cluster">
<title>cluster_MsClientModule</title>
<polygon fill="none" stroke="black" stroke-dasharray="1,5" points="1325,-146 1325,-198 1453,-198 1453,-146 1325,-146"/>
</g>
<g id="clust73" class="cluster">
<title>cluster_ProcessModule</title>
<polygon fill="none" stroke="black" stroke-dasharray="1,5" points="524,-138 524,-339 1117,-339 1117,-138 524,-138"/>
</g>
<g id="clust75" class="cluster">
<title>cluster_ProcessModule_imports</title>
<polygon fill="none" stroke="black" points="985,-146 985,-198 1109,-198 1109,-146 985,-146"/>
</g>
<g id="clust76" class="cluster">
<title>cluster_ProcessModule_exports</title>
<polygon fill="none" stroke="black" points="780,-279 780,-331 950,-331 950,-279 780,-279"/>
</g>
<g id="clust78" class="cluster">
<title>cluster_ProcessModule_providers</title>
<polygon fill="none" stroke="black" points="532,-146 532,-198 977,-198 977,-146 532,-146"/>
</g>
<!-- LogModule -->
<g id="node1" class="node">
<title>LogModule</title>
<polygon fill="#8dd3c7" stroke="black" points="216.1,-122 213.1,-126 192.1,-126 189.1,-122 133.9,-122 133.9,-86 216.1,-86 216.1,-122"/>
<text text-anchor="middle" x="175" y="-99.8" font-family="Times,serif" font-size="14.00">LogModule</text>
</g>
<!-- CacheModule -->
<g id="node3" class="node">
<title>CacheModule</title>
<polygon fill="#8dd3c7" stroke="black" points="200.03,-190 197.03,-194 176.03,-194 173.03,-190 105.97,-190 105.97,-154 200.03,-154 200.03,-190"/>
<text text-anchor="middle" x="153" y="-167.8" font-family="Times,serif" font-size="14.00">CacheModule</text>
</g>
<!-- LogModule&#45;&gt;CacheModule -->
<g id="edge1" class="edge">
<title>LogModule&#45;&gt;CacheModule</title>
<path fill="none" stroke="black" d="M167.11,-122.22C167.11,-122.22 167.11,-143.73 167.11,-143.73"/>
<polygon fill="black" stroke="black" points="163.61,-143.73 167.11,-153.73 170.61,-143.73 163.61,-143.73"/>
</g>
<!-- CategoryModule -->
<g id="node5" class="node">
<title>CategoryModule</title>
<polygon fill="#8dd3c7" stroke="black" points="1597.37,-190 1594.37,-194 1573.37,-194 1570.37,-190 1486.63,-190 1486.63,-154 1597.37,-154 1597.37,-190"/>
<text text-anchor="middle" x="1542" y="-167.8" font-family="Times,serif" font-size="14.00">CategoryModule</text>
</g>
<!-- LogModule&#45;&gt;CategoryModule -->
<g id="edge4" class="edge">
<title>LogModule&#45;&gt;CategoryModule</title>
<path fill="none" stroke="black" d="M216.32,-95C436.39,-95 1460.72,-95 1460.72,-95 1460.72,-95 1460.72,-172 1460.72,-172 1460.72,-172 1476.44,-172 1476.44,-172"/>
<polygon fill="black" stroke="black" points="1476.44,-175.5 1486.44,-172 1476.44,-168.5 1476.44,-175.5"/>
</g>
<!-- ConfigModule -->
<g id="node9" class="node">
<title>ConfigModule</title>
<polygon fill="#8dd3c7" stroke="black" points="363.44,-255 360.44,-259 339.44,-259 336.44,-255 264.56,-255 264.56,-219 363.44,-219 363.44,-255"/>
<text text-anchor="middle" x="314" y="-232.8" font-family="Times,serif" font-size="14.00">ConfigModule</text>
</g>
<!-- LogModule&#45;&gt;ConfigModule -->
<g id="edge8" class="edge">
<title>LogModule&#45;&gt;ConfigModule</title>
<path fill="none" stroke="black" d="M211.11,-122.2C211.11,-157.31 211.11,-231 211.11,-231 211.11,-231 254.66,-231 254.66,-231"/>
<polygon fill="black" stroke="black" points="254.66,-234.5 264.66,-231 254.66,-227.5 254.66,-234.5"/>
</g>
<!-- MsClientModule -->
<g id="node16" class="node">
<title>MsClientModule</title>
<polygon fill="#8dd3c7" stroke="black" points="1444.66,-190 1441.66,-194 1420.66,-194 1417.66,-190 1333.34,-190 1333.34,-154 1444.66,-154 1444.66,-190"/>
<text text-anchor="middle" x="1389" y="-167.8" font-family="Times,serif" font-size="14.00">MsClientModule</text>
</g>
<!-- LogModule&#45;&gt;MsClientModule -->
<g id="edge15" class="edge">
<title>LogModule&#45;&gt;MsClientModule</title>
<path fill="none" stroke="black" d="M216.09,-104C428.15,-104 1389,-104 1389,-104 1389,-104 1389,-143.78 1389,-143.78"/>
<polygon fill="black" stroke="black" points="1385.5,-143.78 1389,-153.78 1392.5,-143.78 1385.5,-143.78"/>
</g>
<!-- ProcessModule -->
<g id="node18" class="node">
<title>ProcessModule</title>
<polygon fill="#8dd3c7" stroke="black" points="916.31,-255 913.31,-259 892.31,-259 889.31,-255 813.69,-255 813.69,-219 916.31,-219 916.31,-255"/>
<text text-anchor="middle" x="865" y="-232.8" font-family="Times,serif" font-size="14.00">ProcessModule</text>
</g>
<!-- LogModule&#45;&gt;ProcessModule -->
<g id="edge17" class="edge">
<title>LogModule&#45;&gt;ProcessModule</title>
<path fill="none" stroke="black" d="M216.06,-113C347.98,-113 752.43,-113 752.43,-113 752.43,-113 752.43,-227 752.43,-227 752.43,-227 803.66,-227 803.66,-227"/>
<polygon fill="black" stroke="black" points="803.66,-230.5 813.66,-227 803.66,-223.5 803.66,-230.5"/>
</g>
<!-- RedisModule -->
<g id="node2" class="node">
<title>RedisModule</title>
<polygon fill="#8dd3c7" stroke="black" points="115.94,-122 112.94,-126 91.94,-126 88.94,-122 24.06,-122 24.06,-86 115.94,-86 115.94,-122"/>
<text text-anchor="middle" x="70" y="-99.8" font-family="Times,serif" font-size="14.00">RedisModule</text>
</g>
<!-- RedisModule&#45;&gt;CacheModule -->
<g id="edge2" class="edge">
<title>RedisModule&#45;&gt;CacheModule</title>
<path fill="none" stroke="black" d="M108.23,-122.22C108.23,-122.22 108.23,-143.73 108.23,-143.73"/>
<polygon fill="black" stroke="black" points="104.73,-143.73 108.23,-153.73 111.73,-143.73 104.73,-143.73"/>
</g>
<!-- MessagesBrokerModule -->
<g id="node15" class="node">
<title>MessagesBrokerModule</title>
<polygon fill="#8dd3c7" stroke="black" points="1309.34,-190 1306.34,-194 1285.34,-194 1282.34,-190 1156.66,-190 1156.66,-154 1309.34,-154 1309.34,-190"/>
<text text-anchor="middle" x="1233" y="-167.8" font-family="Times,serif" font-size="14.00">MessagesBrokerModule</text>
</g>
<!-- RedisModule&#45;&gt;MessagesBrokerModule -->
<g id="edge14" class="edge">
<title>RedisModule&#45;&gt;MessagesBrokerModule</title>
<path fill="none" stroke="black" d="M113.22,-122.2C113.22,-128.03 113.22,-133 113.22,-133 113.22,-133 1233,-133 1233,-133 1233,-133 1233,-143.87 1233,-143.87"/>
<polygon fill="black" stroke="black" points="1229.5,-143.87 1233,-153.87 1236.5,-143.87 1229.5,-143.87"/>
</g>
<!-- WarlockModule -->
<g id="node17" class="node">
<title>WarlockModule</title>
<polygon fill="#8dd3c7" stroke="black" points="1100.75,-190 1097.75,-194 1076.75,-194 1073.75,-190 993.25,-190 993.25,-154 1100.75,-154 1100.75,-190"/>
<text text-anchor="middle" x="1047" y="-167.8" font-family="Times,serif" font-size="14.00">WarlockModule</text>
</g>
<!-- RedisModule&#45;&gt;WarlockModule -->
<g id="edge24" class="edge">
<title>RedisModule&#45;&gt;WarlockModule</title>
<path fill="none" stroke="black" d="M110.73,-122.13C110.73,-132.71 110.73,-144 110.73,-144 110.73,-144 1047,-144 1047,-144 1047,-144 1047,-144.98 1047,-144.98"/>
<polygon fill="black" stroke="black" points="1043.5,-143.79 1047,-153.79 1050.5,-143.79 1043.5,-143.79"/>
</g>
<!-- CacheService  -->
<g id="node4" class="node">
<title>CacheService </title>
<polygon fill="#fb8072" stroke="black" points="201.46,-255 104.54,-255 104.54,-219 201.46,-219 201.46,-255"/>
<text text-anchor="middle" x="153" y="-232.8" font-family="Times,serif" font-size="14.00">CacheService </text>
</g>
<!-- CacheModule&#45;&gt;CacheService  -->
<g id="edge3" class="edge">
<title>CacheModule&#45;&gt;CacheService </title>
<path fill="none" stroke="black" stroke-dasharray="5,2" d="M137.24,-190.11C137.24,-190.11 137.24,-208.99 137.24,-208.99"/>
<polygon fill="black" stroke="black" points="133.75,-208.99 137.24,-218.99 140.75,-208.99 133.75,-208.99"/>
</g>
<!-- CacheModule&#45;&gt;ConfigModule -->
<g id="edge7" class="edge">
<title>CacheModule&#45;&gt;ConfigModule</title>
<path fill="none" stroke="black" d="M200.07,-172C203.8,-172 206.17,-172 206.17,-172 206.17,-172 206.17,-243 206.17,-243 206.17,-243 254.5,-243 254.5,-243"/>
<polygon fill="black" stroke="black" points="254.5,-246.5 264.5,-243 254.5,-239.5 254.5,-246.5"/>
</g>
<!-- CacheModule&#45;&gt;ProcessModule -->
<g id="edge16" class="edge">
<title>CacheModule&#45;&gt;ProcessModule</title>
<path fill="none" stroke="black" d="M168.76,-190.04C168.76,-197.75 168.76,-205 168.76,-205 168.76,-205 847.95,-205 847.95,-205 847.95,-205 847.95,-208.76 847.95,-208.76"/>
<polygon fill="black" stroke="black" points="844.45,-208.76 847.95,-218.76 851.45,-208.76 844.45,-208.76"/>
</g>
<!-- CategoryService  -->
<g id="node6" class="node">
<title>CategoryService </title>
<polygon fill="#fb8072" stroke="black" points="1598.29,-255 1485.71,-255 1485.71,-219 1598.29,-219 1598.29,-255"/>
<text text-anchor="middle" x="1542" y="-232.8" font-family="Times,serif" font-size="14.00">CategoryService </text>
</g>
<!-- CategoryModule&#45;&gt;CategoryService  -->
<g id="edge5" class="edge">
<title>CategoryModule&#45;&gt;CategoryService </title>
<path fill="none" stroke="black" stroke-dasharray="5,2" d="M1542,-190.11C1542,-190.11 1542,-208.99 1542,-208.99"/>
<polygon fill="black" stroke="black" points="1538.5,-208.99 1542,-218.99 1545.5,-208.99 1538.5,-208.99"/>
</g>
<!-- CategoryService -->
<g id="node7" class="node">
<title>CategoryService</title>
<ellipse fill="#fdb462" stroke="black" cx="1552" cy="-104" rx="75.28" ry="18"/>
<text text-anchor="middle" x="1552" y="-99.8" font-family="Times,serif" font-size="14.00">CategoryService</text>
</g>
<!-- CategoryService&#45;&gt;CategoryModule -->
<g id="edge6" class="edge">
<title>CategoryService&#45;&gt;CategoryModule</title>
<path fill="none" stroke="black" d="M1542,-121.87C1542,-121.87 1542,-143.54 1542,-143.54"/>
<polygon fill="black" stroke="black" points="1538.5,-143.54 1542,-153.54 1545.5,-143.54 1538.5,-143.54"/>
</g>
<!-- UserModule -->
<g id="node8" class="node">
<title>UserModule</title>
<polygon fill="#8dd3c7" stroke="black" points="499.98,-190 496.98,-194 475.98,-194 472.98,-190 414.02,-190 414.02,-154 499.98,-154 499.98,-190"/>
<text text-anchor="middle" x="457" y="-167.8" font-family="Times,serif" font-size="14.00">UserModule</text>
</g>
<!-- UserModule&#45;&gt;ConfigModule -->
<g id="edge9" class="edge">
<title>UserModule&#45;&gt;ConfigModule</title>
<path fill="none" stroke="black" d="M442.67,-190.01C442.67,-212.49 442.67,-248 442.67,-248 442.67,-248 373.38,-248 373.38,-248"/>
<polygon fill="black" stroke="black" points="373.38,-244.5 363.38,-248 373.38,-251.5 373.38,-244.5"/>
</g>
<!-- UserModule&#45;&gt;ProcessModule -->
<g id="edge19" class="edge">
<title>UserModule&#45;&gt;ProcessModule</title>
<path fill="none" stroke="black" d="M471.33,-190.13C471.33,-210.57 471.33,-241 471.33,-241 471.33,-241 803.53,-241 803.53,-241"/>
<polygon fill="black" stroke="black" points="803.53,-244.5 813.53,-241 803.53,-237.5 803.53,-244.5"/>
</g>
<!-- ConfigService  -->
<g id="node10" class="node">
<title>ConfigService </title>
<polygon fill="#fb8072" stroke="black" points="364.37,-323 263.63,-323 263.63,-287 364.37,-287 364.37,-323"/>
<text text-anchor="middle" x="314" y="-300.8" font-family="Times,serif" font-size="14.00">ConfigService </text>
</g>
<!-- ConfigModule&#45;&gt;ConfigService  -->
<g id="edge10" class="edge">
<title>ConfigModule&#45;&gt;ConfigService </title>
<path fill="none" stroke="black" stroke-dasharray="5,2" d="M314,-255.22C314,-255.22 314,-276.73 314,-276.73"/>
<polygon fill="black" stroke="black" points="310.5,-276.73 314,-286.73 317.5,-276.73 310.5,-276.73"/>
</g>
<!-- ConfigService -->
<g id="node11" class="node">
<title>ConfigService</title>
<ellipse fill="#fdb462" stroke="black" cx="323" cy="-172" rx="66.63" ry="18"/>
<text text-anchor="middle" x="323" y="-167.8" font-family="Times,serif" font-size="14.00">ConfigService</text>
</g>
<!-- ConfigService&#45;&gt;ConfigModule -->
<g id="edge11" class="edge">
<title>ConfigService&#45;&gt;ConfigModule</title>
<path fill="none" stroke="black" d="M314,-190.11C314,-190.11 314,-208.99 314,-208.99"/>
<polygon fill="black" stroke="black" points="310.5,-208.99 314,-218.99 317.5,-208.99 310.5,-208.99"/>
</g>
<!-- LocaleService  -->
<g id="node12" class="node">
<title>LocaleService </title>
<polygon fill="#fb8072" stroke="black" points="1782.57,-255 1683.43,-255 1683.43,-219 1782.57,-219 1782.57,-255"/>
<text text-anchor="middle" x="1733" y="-232.8" font-family="Times,serif" font-size="14.00">LocaleService </text>
</g>
<!-- LocaleModule -->
<g id="node13" class="node">
<title>LocaleModule</title>
<polygon fill="#8dd3c7" stroke="black" points="1781.64,-190 1778.64,-194 1757.64,-194 1754.64,-190 1684.36,-190 1684.36,-154 1781.64,-154 1781.64,-190"/>
<text text-anchor="middle" x="1733" y="-167.8" font-family="Times,serif" font-size="14.00">LocaleModule</text>
</g>
<!-- LocaleModule&#45;&gt;LocaleService  -->
<g id="edge12" class="edge">
<title>LocaleModule&#45;&gt;LocaleService </title>
<path fill="none" stroke="black" stroke-dasharray="5,2" d="M1733,-190.11C1733,-190.11 1733,-208.99 1733,-208.99"/>
<polygon fill="black" stroke="black" points="1729.5,-208.99 1733,-218.99 1736.5,-208.99 1729.5,-208.99"/>
</g>
<!-- LocaleService -->
<g id="node14" class="node">
<title>LocaleService</title>
<ellipse fill="#fdb462" stroke="black" cx="1733" cy="-104" rx="66.03" ry="18"/>
<text text-anchor="middle" x="1733" y="-99.8" font-family="Times,serif" font-size="14.00">LocaleService</text>
</g>
<!-- LocaleService&#45;&gt;LocaleModule -->
<g id="edge13" class="edge">
<title>LocaleService&#45;&gt;LocaleModule</title>
<path fill="none" stroke="black" d="M1733,-122.22C1733,-122.22 1733,-143.73 1733,-143.73"/>
<polygon fill="black" stroke="black" points="1729.5,-143.73 1733,-153.73 1736.5,-143.73 1729.5,-143.73"/>
</g>
<!-- MessagesBrokerModule&#45;&gt;ProcessModule -->
<g id="edge18" class="edge">
<title>MessagesBrokerModule&#45;&gt;ProcessModule</title>
<path fill="none" stroke="black" d="M1233,-190.28C1233,-211.32 1233,-243 1233,-243 1233,-243 926.17,-243 926.17,-243"/>
<polygon fill="black" stroke="black" points="926.17,-239.5 916.17,-243 926.17,-246.5 926.17,-239.5"/>
</g>
<!-- WarlockModule&#45;&gt;ProcessModule -->
<g id="edge20" class="edge">
<title>WarlockModule&#45;&gt;ProcessModule</title>
<path fill="none" stroke="black" d="M1047,-190.02C1047,-207.37 1047,-231 1047,-231 1047,-231 926.18,-231 926.18,-231"/>
<polygon fill="black" stroke="black" points="926.18,-227.5 916.18,-231 926.18,-234.5 926.18,-227.5"/>
</g>
<!-- ProcessManagerService  -->
<g id="node19" class="node">
<title>ProcessManagerService </title>
<polygon fill="#fb8072" stroke="black" points="941.99,-323 788.01,-323 788.01,-287 941.99,-287 941.99,-323"/>
<text text-anchor="middle" x="865" y="-300.8" font-family="Times,serif" font-size="14.00">ProcessManagerService </text>
</g>
<!-- ProcessModule&#45;&gt;ProcessManagerService  -->
<g id="edge21" class="edge">
<title>ProcessModule&#45;&gt;ProcessManagerService </title>
<path fill="none" stroke="black" stroke-dasharray="5,2" d="M865,-255.22C865,-255.22 865,-276.73 865,-276.73"/>
<polygon fill="black" stroke="black" points="861.5,-276.73 865,-286.73 868.5,-276.73 861.5,-276.73"/>
</g>
<!-- ProcessManagerService -->
<g id="node20" class="node">
<title>ProcessManagerService</title>
<ellipse fill="#fdb462" stroke="black" cx="865" cy="-172" rx="103.61" ry="18"/>
<text text-anchor="middle" x="865" y="-167.8" font-family="Times,serif" font-size="14.00">ProcessManagerService</text>
</g>
<!-- ProcessManagerService&#45;&gt;ProcessModule -->
<g id="edge22" class="edge">
<title>ProcessManagerService&#45;&gt;ProcessModule</title>
<path fill="none" stroke="black" d="M882.05,-189.76C882.05,-189.76 882.05,-208.81 882.05,-208.81"/>
<polygon fill="black" stroke="black" points="878.55,-208.81 882.05,-218.81 885.55,-208.81 878.55,-208.81"/>
</g>
<!-- ProcessRegisterService -->
<g id="node21" class="node">
<title>ProcessRegisterService</title>
<ellipse fill="#fdb462" stroke="black" cx="642" cy="-172" rx="101.84" ry="18"/>
<text text-anchor="middle" x="642" y="-167.8" font-family="Times,serif" font-size="14.00">ProcessRegisterService</text>
</g>
<!-- ProcessRegisterService&#45;&gt;ProcessModule -->
<g id="edge23" class="edge">
<title>ProcessRegisterService&#45;&gt;ProcessModule</title>
<path fill="none" stroke="black" d="M642,-190.27C642,-208.56 642,-234 642,-234 642,-234 803.84,-234 803.84,-234"/>
<polygon fill="black" stroke="black" points="803.84,-237.5 813.84,-234 803.84,-230.5 803.84,-237.5"/>
</g>
</g>
</svg>
