<?xml version="1.0" encoding="UTF-8" standalone="no"?>
<!DOCTYPE svg PUBLIC "-//W3C//DTD SVG 1.1//EN"
 "http://www.w3.org/Graphics/SVG/1.1/DTD/svg11.dtd">
<!-- Generated by graphviz version 2.47.0 (20210316.0004)
 -->
<!-- Title: dependencies Pages: 1 -->
<svg width="1103pt" height="284pt"
 viewBox="0.00 0.00 1103.00 284.00" xmlns="http://www.w3.org/2000/svg" xmlns:xlink="http://www.w3.org/1999/xlink">
<g id="graph0" class="graph" transform="scale(1 1) rotate(0) translate(4 280)">
<title>dependencies</title>
<polygon fill="white" stroke="transparent" points="-4,4 -4,-280 1099,-280 1099,4 -4,4"/>
<text text-anchor="start" x="526.51" y="-42.4" font-family="Times-12" font-weight="bold" font-size="14.00">Legend</text>
<polygon fill="#ffffb3" stroke="transparent" points="313.5,-10 313.5,-30 333.5,-30 333.5,-10 313.5,-10"/>
<text text-anchor="start" x="337.13" y="-15.4" font-family="Times-12" font-size="14.00"> &#160;Declarations</text>
<polygon fill="#8dd3c7" stroke="transparent" points="426.5,-10 426.5,-30 446.5,-30 446.5,-10 426.5,-10"/>
<text text-anchor="start" x="450.23" y="-15.4" font-family="Times-12" font-size="14.00"> &#160;Module</text>
<polygon fill="#80b1d3" stroke="transparent" points="512.5,-10 512.5,-30 532.5,-30 532.5,-10 512.5,-10"/>
<text text-anchor="start" x="536.28" y="-15.4" font-family="Times-12" font-size="14.00"> &#160;Bootstrap</text>
<polygon fill="#fdb462" stroke="transparent" points="609.5,-10 609.5,-30 629.5,-30 629.5,-10 609.5,-10"/>
<text text-anchor="start" x="633.17" y="-15.4" font-family="Times-12" font-size="14.00"> &#160;Providers</text>
<polygon fill="#fb8072" stroke="transparent" points="705.5,-10 705.5,-30 725.5,-30 725.5,-10 705.5,-10"/>
<text text-anchor="start" x="729.23" y="-15.4" font-family="Times-12" font-size="14.00"> &#160;Exports</text>
<g id="clust1" class="cluster">
<title>cluster_ProcessModule</title>
<polygon fill="none" stroke="black" stroke-dasharray="1,5" points="8,-70 8,-268 1087,-268 1087,-70 8,-70"/>
</g>
<g id="clust4" class="cluster">
<title>cluster_ProcessModule_exports</title>
<polygon fill="none" stroke="black" points="380,-208 380,-260 550,-260 550,-208 380,-208"/>
</g>
<g id="clust6" class="cluster">
<title>cluster_ProcessModule_providers</title>
<polygon fill="none" stroke="black" points="634,-78 634,-130 1079,-130 1079,-78 634,-78"/>
</g>
<g id="clust3" class="cluster">
<title>cluster_ProcessModule_imports</title>
<polygon fill="none" stroke="black" points="16,-78 16,-130 626,-130 626,-78 16,-78"/>
</g>
<!-- CacheModule -->
<g id="node1" class="node">
<title>CacheModule</title>
<polygon fill="#8dd3c7" stroke="black" points="618.03,-122 615.03,-126 594.03,-126 591.03,-122 523.97,-122 523.97,-86 618.03,-86 618.03,-122"/>
<text text-anchor="middle" x="571" y="-99.8" font-family="Times,serif" font-size="14.00">CacheModule</text>
</g>
<!-- ProcessModule -->
<g id="node6" class="node">
<title>ProcessModule</title>
<polygon fill="#8dd3c7" stroke="black" points="516.31,-187 513.31,-191 492.31,-191 489.31,-187 413.69,-187 413.69,-151 516.31,-151 516.31,-187"/>
<text text-anchor="middle" x="465" y="-164.8" font-family="Times,serif" font-size="14.00">ProcessModule</text>
</g>
<!-- CacheModule&#45;&gt;ProcessModule -->
<g id="edge1" class="edge">
<title>CacheModule&#45;&gt;ProcessModule</title>
<path fill="none" stroke="black" d="M523.81,-104C516.38,-104 511.1,-104 511.1,-104 511.1,-104 511.1,-140.89 511.1,-140.89"/>
<polygon fill="black" stroke="black" points="507.6,-140.89 511.1,-150.89 514.6,-140.89 507.6,-140.89"/>
</g>
<!-- LogModule -->
<g id="node2" class="node">
<title>LogModule</title>
<polygon fill="#8dd3c7" stroke="black" points="506.1,-122 503.1,-126 482.1,-126 479.1,-122 423.9,-122 423.9,-86 506.1,-86 506.1,-122"/>
<text text-anchor="middle" x="465" y="-99.8" font-family="Times,serif" font-size="14.00">LogModule</text>
</g>
<!-- LogModule&#45;&gt;ProcessModule -->
<g id="edge2" class="edge">
<title>LogModule&#45;&gt;ProcessModule</title>
<path fill="none" stroke="black" d="M465,-122.11C465,-122.11 465,-140.99 465,-140.99"/>
<polygon fill="black" stroke="black" points="461.5,-140.99 465,-150.99 468.5,-140.99 461.5,-140.99"/>
</g>
<!-- MessagesBrokerModule -->
<g id="node3" class="node">
<title>MessagesBrokerModule</title>
<polygon fill="#8dd3c7" stroke="black" points="406.34,-122 403.34,-126 382.34,-126 379.34,-122 253.66,-122 253.66,-86 406.34,-86 406.34,-122"/>
<text text-anchor="middle" x="330" y="-99.8" font-family="Times,serif" font-size="14.00">MessagesBrokerModule</text>
</g>
<!-- MessagesBrokerModule&#45;&gt;ProcessModule -->
<g id="edge3" class="edge">
<title>MessagesBrokerModule&#45;&gt;ProcessModule</title>
<path fill="none" stroke="black" d="M406.54,-104C414.01,-104 418.9,-104 418.9,-104 418.9,-104 418.9,-140.89 418.9,-140.89"/>
<polygon fill="black" stroke="black" points="415.4,-140.89 418.9,-150.89 422.4,-140.89 415.4,-140.89"/>
</g>
<!-- UserModule -->
<g id="node4" class="node">
<title>UserModule</title>
<polygon fill="#8dd3c7" stroke="black" points="235.98,-122 232.98,-126 211.98,-126 208.98,-122 150.02,-122 150.02,-86 235.98,-86 235.98,-122"/>
<text text-anchor="middle" x="193" y="-99.8" font-family="Times,serif" font-size="14.00">UserModule</text>
</g>
<!-- UserModule&#45;&gt;ProcessModule -->
<g id="edge4" class="edge">
<title>UserModule&#45;&gt;ProcessModule</title>
<path fill="none" stroke="black" d="M193,-122.02C193,-139.37 193,-163 193,-163 193,-163 403.84,-163 403.84,-163"/>
<polygon fill="black" stroke="black" points="403.84,-166.5 413.84,-163 403.84,-159.5 403.84,-166.5"/>
</g>
<!-- WarlockModule -->
<g id="node5" class="node">
<title>WarlockModule</title>
<polygon fill="#8dd3c7" stroke="black" points="131.75,-122 128.75,-126 107.75,-126 104.75,-122 24.25,-122 24.25,-86 131.75,-86 131.75,-122"/>
<text text-anchor="middle" x="78" y="-99.8" font-family="Times,serif" font-size="14.00">WarlockModule</text>
</g>
<!-- WarlockModule&#45;&gt;ProcessModule -->
<g id="edge5" class="edge">
<title>WarlockModule&#45;&gt;ProcessModule</title>
<path fill="none" stroke="black" d="M78,-122.28C78,-143.32 78,-175 78,-175 78,-175 403.61,-175 403.61,-175"/>
<polygon fill="black" stroke="black" points="403.61,-178.5 413.61,-175 403.61,-171.5 403.61,-178.5"/>
</g>
<!-- ProcessManagerService  -->
<g id="node7" class="node">
<title>ProcessManagerService </title>
<polygon fill="#fb8072" stroke="black" points="541.99,-252 388.01,-252 388.01,-216 541.99,-216 541.99,-252"/>
<text text-anchor="middle" x="465" y="-229.8" font-family="Times,serif" font-size="14.00">ProcessManagerService </text>
</g>
<!-- ProcessModule&#45;&gt;ProcessManagerService  -->
<g id="edge6" class="edge">
<title>ProcessModule&#45;&gt;ProcessManagerService </title>
<path fill="none" stroke="black" stroke-dasharray="5,2" d="M465,-187.11C465,-187.11 465,-205.99 465,-205.99"/>
<polygon fill="black" stroke="black" points="461.5,-205.99 465,-215.99 468.5,-205.99 461.5,-205.99"/>
</g>
<!-- ProcessManagerService -->
<g id="node8" class="node">
<title>ProcessManagerService</title>
<ellipse fill="#fdb462" stroke="black" cx="967" cy="-104" rx="103.61" ry="18"/>
<text text-anchor="middle" x="967" y="-99.8" font-family="Times,serif" font-size="14.00">ProcessManagerService</text>
</g>
<!-- ProcessManagerService&#45;&gt;ProcessModule -->
<g id="edge7" class="edge">
<title>ProcessManagerService&#45;&gt;ProcessModule</title>
<path fill="none" stroke="black" d="M967,-122.28C967,-143.32 967,-175 967,-175 967,-175 526.36,-175 526.36,-175"/>
<polygon fill="black" stroke="black" points="526.36,-171.5 516.36,-175 526.36,-178.5 526.36,-171.5"/>
</g>
<!-- ProcessRegisterService -->
<g id="node9" class="node">
<title>ProcessRegisterService</title>
<ellipse fill="#fdb462" stroke="black" cx="744" cy="-104" rx="101.84" ry="18"/>
<text text-anchor="middle" x="744" y="-99.8" font-family="Times,serif" font-size="14.00">ProcessRegisterService</text>
</g>
<!-- ProcessRegisterService&#45;&gt;ProcessModule -->
<g id="edge8" class="edge">
<title>ProcessRegisterService&#45;&gt;ProcessModule</title>
<path fill="none" stroke="black" d="M744,-122.02C744,-139.37 744,-163 744,-163 744,-163 526.17,-163 526.17,-163"/>
<polygon fill="black" stroke="black" points="526.17,-159.5 516.17,-163 526.17,-166.5 526.17,-159.5"/>
</g>
</g>
</svg>
