<?xml version="1.0" encoding="UTF-8" standalone="no"?>
<!DOCTYPE svg PUBLIC "-//W3C//DTD SVG 1.1//EN"
 "http://www.w3.org/Graphics/SVG/1.1/DTD/svg11.dtd">
<!-- Generated by graphviz version 2.47.0 (20210316.0004)
 -->
<!-- Title: dependencies Pages: 1 -->
<svg width="1103pt" height="284pt"
 viewBox="0.00 0.00 1103.00 284.00" xmlns="http://www.w3.org/2000/svg" xmlns:xlink="http://www.w3.org/1999/xlink">
<g id="graph0" class="graph" transform="scale(1 1) rotate(0) translate(4 280)">
<title>dependencies</title>
<polygon fill="white" stroke="transparent" points="-4,4 -4,-280 1099,-280 1099,4 -4,4"/>
<text text-anchor="start" x="526.51" y="-42.4" font-family="Times-12" font-weight="bold" font-size="14.00">Legend</text>
<polygon fill="#ffffb3" stroke="transparent" points="313.5,-10 313.5,-30 333.5,-30 333.5,-10 313.5,-10"/>
<text text-anchor="start" x="337.13" y="-15.4" font-family="Times-12" font-size="14.00"> &#160;Declarations</text>
<polygon fill="#8dd3c7" stroke="transparent" points="426.5,-10 426.5,-30 446.5,-30 446.5,-10 426.5,-10"/>
<text text-anchor="start" x="450.23" y="-15.4" font-family="Times-12" font-size="14.00"> &#160;Module</text>
<polygon fill="#80b1d3" stroke="transparent" points="512.5,-10 512.5,-30 532.5,-30 532.5,-10 512.5,-10"/>
<text text-anchor="start" x="536.28" y="-15.4" font-family="Times-12" font-size="14.00"> &#160;Bootstrap</text>
<polygon fill="#fdb462" stroke="transparent" points="609.5,-10 609.5,-30 629.5,-30 629.5,-10 609.5,-10"/>
<text text-anchor="start" x="633.17" y="-15.4" font-family="Times-12" font-size="14.00"> &#160;Providers</text>
<polygon fill="#fb8072" stroke="transparent" points="705.5,-10 705.5,-30 725.5,-30 725.5,-10 705.5,-10"/>
<text text-anchor="start" x="729.23" y="-15.4" font-family="Times-12" font-size="14.00"> &#160;Exports</text>
<g id="clust1" class="cluster">
<title>cluster_ProcessModule</title>
<polygon fill="none" stroke="black" stroke-dasharray="1,5" points="8,-70 8,-268 1087,-268 1087,-70 8,-70"/>
</g>
<g id="clust3" class="cluster">
<title>cluster_ProcessModule_imports</title>
<polygon fill="none" stroke="black" points="469,-78 469,-130 1079,-130 1079,-78 469,-78"/>
</g>
<g id="clust6" class="cluster">
<title>cluster_ProcessModule_providers</title>
<polygon fill="none" stroke="black" points="16,-78 16,-130 461,-130 461,-78 16,-78"/>
</g>
<g id="clust4" class="cluster">
<title>cluster_ProcessModule_exports</title>
<polygon fill="none" stroke="black" points="561,-208 561,-260 731,-260 731,-208 561,-208"/>
</g>
<!-- CacheModule -->
<g id="node1" class="node">
<title>CacheModule</title>
<polygon fill="#8dd3c7" stroke="black" points="1071.03,-122 1068.03,-126 1047.03,-126 1044.03,-122 976.97,-122 976.97,-86 1071.03,-86 1071.03,-122"/>
<text text-anchor="middle" x="1024" y="-99.8" font-family="Times,serif" font-size="14.00">CacheModule</text>
</g>
<!-- ProcessModule -->
<g id="node6" class="node">
<title>ProcessModule</title>
<polygon fill="#8dd3c7" stroke="black" points="697.31,-187 694.31,-191 673.31,-191 670.31,-187 594.69,-187 594.69,-151 697.31,-151 697.31,-187"/>
<text text-anchor="middle" x="646" y="-164.8" font-family="Times,serif" font-size="14.00">ProcessModule</text>
</g>
<!-- CacheModule&#45;&gt;ProcessModule -->
<g id="edge1" class="edge">
<title>CacheModule&#45;&gt;ProcessModule</title>
<path fill="none" stroke="black" d="M1024,-122.28C1024,-143.32 1024,-175 1024,-175 1024,-175 707.37,-175 707.37,-175"/>
<polygon fill="black" stroke="black" points="707.37,-171.5 697.37,-175 707.37,-178.5 707.37,-171.5"/>
</g>
<!-- LogModule -->
<g id="node2" class="node">
<title>LogModule</title>
<polygon fill="#8dd3c7" stroke="black" points="959.1,-122 956.1,-126 935.1,-126 932.1,-122 876.9,-122 876.9,-86 959.1,-86 959.1,-122"/>
<text text-anchor="middle" x="918" y="-99.8" font-family="Times,serif" font-size="14.00">LogModule</text>
</g>
<!-- LogModule&#45;&gt;ProcessModule -->
<g id="edge2" class="edge">
<title>LogModule&#45;&gt;ProcessModule</title>
<path fill="none" stroke="black" d="M918,-122.02C918,-139.37 918,-163 918,-163 918,-163 707.16,-163 707.16,-163"/>
<polygon fill="black" stroke="black" points="707.16,-159.5 697.16,-163 707.16,-166.5 707.16,-159.5"/>
</g>
<!-- MessagesBrokerModule -->
<g id="node3" class="node">
<title>MessagesBrokerModule</title>
<polygon fill="#8dd3c7" stroke="black" points="859.34,-122 856.34,-126 835.34,-126 832.34,-122 706.66,-122 706.66,-86 859.34,-86 859.34,-122"/>
<text text-anchor="middle" x="783" y="-99.8" font-family="Times,serif" font-size="14.00">MessagesBrokerModule</text>
</g>
<!-- MessagesBrokerModule&#45;&gt;ProcessModule -->
<g id="edge3" class="edge">
<title>MessagesBrokerModule&#45;&gt;ProcessModule</title>
<path fill="none" stroke="black" d="M706.34,-104C698.35,-104 693.07,-104 693.07,-104 693.07,-104 693.07,-140.89 693.07,-140.89"/>
<polygon fill="black" stroke="black" points="689.57,-140.89 693.07,-150.89 696.57,-140.89 689.57,-140.89"/>
</g>
<!-- UserModule -->
<g id="node4" class="node">
<title>UserModule</title>
<polygon fill="#8dd3c7" stroke="black" points="688.98,-122 685.98,-126 664.98,-126 661.98,-122 603.02,-122 603.02,-86 688.98,-86 688.98,-122"/>
<text text-anchor="middle" x="646" y="-99.8" font-family="Times,serif" font-size="14.00">UserModule</text>
</g>
<!-- UserModule&#45;&gt;ProcessModule -->
<g id="edge4" class="edge">
<title>UserModule&#45;&gt;ProcessModule</title>
<path fill="none" stroke="black" d="M646,-122.11C646,-122.11 646,-140.99 646,-140.99"/>
<polygon fill="black" stroke="black" points="642.5,-140.99 646,-150.99 649.5,-140.99 642.5,-140.99"/>
</g>
<!-- WarlockModule -->
<g id="node5" class="node">
<title>WarlockModule</title>
<polygon fill="#8dd3c7" stroke="black" points="584.75,-122 581.75,-126 560.75,-126 557.75,-122 477.25,-122 477.25,-86 584.75,-86 584.75,-122"/>
<text text-anchor="middle" x="531" y="-99.8" font-family="Times,serif" font-size="14.00">WarlockModule</text>
</g>
<!-- WarlockModule&#45;&gt;ProcessModule -->
<g id="edge5" class="edge">
<title>WarlockModule&#45;&gt;ProcessModule</title>
<path fill="none" stroke="black" d="M584.85,-104C593.1,-104 598.93,-104 598.93,-104 598.93,-104 598.93,-140.89 598.93,-140.89"/>
<polygon fill="black" stroke="black" points="595.43,-140.89 598.93,-150.89 602.43,-140.89 595.43,-140.89"/>
</g>
<!-- ProcessManagerService  -->
<g id="node7" class="node">
<title>ProcessManagerService </title>
<polygon fill="#fb8072" stroke="black" points="722.99,-252 569.01,-252 569.01,-216 722.99,-216 722.99,-252"/>
<text text-anchor="middle" x="646" y="-229.8" font-family="Times,serif" font-size="14.00">ProcessManagerService </text>
</g>
<!-- ProcessModule&#45;&gt;ProcessManagerService  -->
<g id="edge6" class="edge">
<title>ProcessModule&#45;&gt;ProcessManagerService </title>
<path fill="none" stroke="black" stroke-dasharray="5,2" d="M646,-187.11C646,-187.11 646,-205.99 646,-205.99"/>
<polygon fill="black" stroke="black" points="642.5,-205.99 646,-215.99 649.5,-205.99 642.5,-205.99"/>
</g>
<!-- ProcessManagerService -->
<g id="node8" class="node">
<title>ProcessManagerService</title>
<ellipse fill="#fdb462" stroke="black" cx="349" cy="-104" rx="103.61" ry="18"/>
<text text-anchor="middle" x="349" y="-99.8" font-family="Times,serif" font-size="14.00">ProcessManagerService</text>
</g>
<!-- ProcessManagerService&#45;&gt;ProcessModule -->
<g id="edge7" class="edge">
<title>ProcessManagerService&#45;&gt;ProcessModule</title>
<path fill="none" stroke="black" d="M349,-122.02C349,-139.37 349,-163 349,-163 349,-163 584.61,-163 584.61,-163"/>
<polygon fill="black" stroke="black" points="584.61,-166.5 594.61,-163 584.61,-159.5 584.61,-166.5"/>
</g>
<!-- ProcessRegisterService -->
<g id="node9" class="node">
<title>ProcessRegisterService</title>
<ellipse fill="#fdb462" stroke="black" cx="126" cy="-104" rx="101.84" ry="18"/>
<text text-anchor="middle" x="126" y="-99.8" font-family="Times,serif" font-size="14.00">ProcessRegisterService</text>
</g>
<!-- ProcessRegisterService&#45;&gt;ProcessModule -->
<g id="edge8" class="edge">
<title>ProcessRegisterService&#45;&gt;ProcessModule</title>
<path fill="none" stroke="black" d="M126,-122.28C126,-143.32 126,-175 126,-175 126,-175 584.72,-175 584.72,-175"/>
<polygon fill="black" stroke="black" points="584.72,-178.5 594.72,-175 584.72,-171.5 584.72,-178.5"/>
</g>
</g>
</svg>
