<?xml version="1.0" encoding="UTF-8" standalone="no"?>
<!DOCTYPE svg PUBLIC "-//W3C//DTD SVG 1.1//EN"
 "http://www.w3.org/Graphics/SVG/1.1/DTD/svg11.dtd">
<!-- Generated by graphviz version 2.47.0 (20210316.0004)
 -->
<!-- Title: dependencies Pages: 1 -->
<svg width="504pt" height="284pt"
 viewBox="0.00 0.00 504.00 284.00" xmlns="http://www.w3.org/2000/svg" xmlns:xlink="http://www.w3.org/1999/xlink">
<g id="graph0" class="graph" transform="scale(1 1) rotate(0) translate(4 280)">
<title>dependencies</title>
<polygon fill="white" stroke="transparent" points="-4,4 -4,-280 500,-280 500,4 -4,4"/>
<text text-anchor="start" x="227.01" y="-42.4" font-family="Times-12" font-weight="bold" font-size="14.00">Legend</text>
<polygon fill="#ffffb3" stroke="transparent" points="14,-10 14,-30 34,-30 34,-10 14,-10"/>
<text text-anchor="start" x="37.63" y="-15.4" font-family="Times-12" font-size="14.00"> &#160;Declarations</text>
<polygon fill="#8dd3c7" stroke="transparent" points="127,-10 127,-30 147,-30 147,-10 127,-10"/>
<text text-anchor="start" x="150.73" y="-15.4" font-family="Times-12" font-size="14.00"> &#160;Module</text>
<polygon fill="#80b1d3" stroke="transparent" points="213,-10 213,-30 233,-30 233,-10 213,-10"/>
<text text-anchor="start" x="236.78" y="-15.4" font-family="Times-12" font-size="14.00"> &#160;Bootstrap</text>
<polygon fill="#fdb462" stroke="transparent" points="310,-10 310,-30 330,-30 330,-10 310,-10"/>
<text text-anchor="start" x="333.67" y="-15.4" font-family="Times-12" font-size="14.00"> &#160;Providers</text>
<polygon fill="#fb8072" stroke="transparent" points="406,-10 406,-30 426,-30 426,-10 406,-10"/>
<text text-anchor="start" x="429.73" y="-15.4" font-family="Times-12" font-size="14.00"> &#160;Exports</text>
<g id="clust1" class="cluster">
<title>cluster_CategoryModule</title>
<polygon fill="none" stroke="black" stroke-dasharray="1,5" points="104,-70 104,-268 392,-268 392,-70 104,-70"/>
</g>
<g id="clust3" class="cluster">
<title>cluster_CategoryModule_imports</title>
<polygon fill="none" stroke="black" points="286,-78 286,-130 384,-130 384,-78 286,-78"/>
</g>
<g id="clust4" class="cluster">
<title>cluster_CategoryModule_exports</title>
<polygon fill="none" stroke="black" points="193,-208 193,-260 321,-260 321,-208 193,-208"/>
</g>
<g id="clust6" class="cluster">
<title>cluster_CategoryModule_providers</title>
<polygon fill="none" stroke="black" points="112,-78 112,-130 278,-130 278,-78 112,-78"/>
</g>
<!-- LogModule -->
<g id="node1" class="node">
<title>LogModule</title>
<polygon fill="#8dd3c7" stroke="black" points="376.1,-122 373.1,-126 352.1,-126 349.1,-122 293.9,-122 293.9,-86 376.1,-86 376.1,-122"/>
<text text-anchor="middle" x="335" y="-99.8" font-family="Times,serif" font-size="14.00">LogModule</text>
</g>
<!-- CategoryModule -->
<g id="node2" class="node">
<title>CategoryModule</title>
<polygon fill="#8dd3c7" stroke="black" points="312.37,-187 309.37,-191 288.37,-191 285.37,-187 201.63,-187 201.63,-151 312.37,-151 312.37,-187"/>
<text text-anchor="middle" x="257" y="-164.8" font-family="Times,serif" font-size="14.00">CategoryModule</text>
</g>
<!-- LogModule&#45;&gt;CategoryModule -->
<g id="edge1" class="edge">
<title>LogModule&#45;&gt;CategoryModule</title>
<path fill="none" stroke="black" d="M303.19,-122.11C303.19,-122.11 303.19,-140.99 303.19,-140.99"/>
<polygon fill="black" stroke="black" points="299.69,-140.99 303.19,-150.99 306.69,-140.99 299.69,-140.99"/>
</g>
<!-- CategoryService  -->
<g id="node3" class="node">
<title>CategoryService </title>
<polygon fill="#fb8072" stroke="black" points="313.29,-252 200.71,-252 200.71,-216 313.29,-216 313.29,-252"/>
<text text-anchor="middle" x="257" y="-229.8" font-family="Times,serif" font-size="14.00">CategoryService </text>
</g>
<!-- CategoryModule&#45;&gt;CategoryService  -->
<g id="edge2" class="edge">
<title>CategoryModule&#45;&gt;CategoryService </title>
<path fill="none" stroke="black" stroke-dasharray="5,2" d="M257,-187.11C257,-187.11 257,-205.99 257,-205.99"/>
<polygon fill="black" stroke="black" points="253.5,-205.99 257,-215.99 260.5,-205.99 253.5,-205.99"/>
</g>
<!-- CategoryService -->
<g id="node4" class="node">
<title>CategoryService</title>
<ellipse fill="#fdb462" stroke="black" cx="195" cy="-104" rx="75.28" ry="18"/>
<text text-anchor="middle" x="195" y="-99.8" font-family="Times,serif" font-size="14.00">CategoryService</text>
</g>
<!-- CategoryService&#45;&gt;CategoryModule -->
<g id="edge3" class="edge">
<title>CategoryService&#45;&gt;CategoryModule</title>
<path fill="none" stroke="black" d="M235.98,-119.4C235.98,-119.4 235.98,-140.94 235.98,-140.94"/>
<polygon fill="black" stroke="black" points="232.48,-140.94 235.98,-150.94 239.48,-140.94 232.48,-140.94"/>
</g>
</g>
</svg>
