<?xml version="1.0" encoding="UTF-8" standalone="no"?>
<!DOCTYPE svg PUBLIC "-//W3C//DTD SVG 1.1//EN"
 "http://www.w3.org/Graphics/SVG/1.1/DTD/svg11.dtd">
<!-- Generated by graphviz version 2.47.0 (20210316.0004)
 -->
<!-- Title: dependencies Pages: 1 -->
<svg width="512pt" height="284pt"
 viewBox="0.00 0.00 512.00 284.00" xmlns="http://www.w3.org/2000/svg" xmlns:xlink="http://www.w3.org/1999/xlink">
<g id="graph0" class="graph" transform="scale(1 1) rotate(0) translate(4 280)">
<title>dependencies</title>
<polygon fill="white" stroke="transparent" points="-4,4 -4,-280 508,-280 508,4 -4,4"/>
<text text-anchor="start" x="231.01" y="-42.4" font-family="Times-12" font-weight="bold" font-size="14.00">Legend</text>
<polygon fill="#ffffb3" stroke="transparent" points="18,-10 18,-30 38,-30 38,-10 18,-10"/>
<text text-anchor="start" x="41.63" y="-15.4" font-family="Times-12" font-size="14.00"> &#160;Declarations</text>
<polygon fill="#8dd3c7" stroke="transparent" points="131,-10 131,-30 151,-30 151,-10 131,-10"/>
<text text-anchor="start" x="154.73" y="-15.4" font-family="Times-12" font-size="14.00"> &#160;Module</text>
<polygon fill="#80b1d3" stroke="transparent" points="217,-10 217,-30 237,-30 237,-10 217,-10"/>
<text text-anchor="start" x="240.78" y="-15.4" font-family="Times-12" font-size="14.00"> &#160;Bootstrap</text>
<polygon fill="#fdb462" stroke="transparent" points="314,-10 314,-30 334,-30 334,-10 314,-10"/>
<text text-anchor="start" x="337.67" y="-15.4" font-family="Times-12" font-size="14.00"> &#160;Providers</text>
<polygon fill="#fb8072" stroke="transparent" points="410,-10 410,-30 430,-30 430,-10 410,-10"/>
<text text-anchor="start" x="433.73" y="-15.4" font-family="Times-12" font-size="14.00"> &#160;Exports</text>
<g id="clust1" class="cluster">
<title>cluster_ConfigModule</title>
<polygon fill="none" stroke="black" stroke-dasharray="1,5" points="8,-70 8,-268 496,-268 496,-70 8,-70"/>
</g>
<g id="clust4" class="cluster">
<title>cluster_ConfigModule_exports</title>
<polygon fill="none" stroke="black" points="218,-208 218,-260 334,-260 334,-208 218,-208"/>
</g>
<g id="clust3" class="cluster">
<title>cluster_ConfigModule_imports</title>
<polygon fill="none" stroke="black" points="174,-78 174,-130 488,-130 488,-78 174,-78"/>
</g>
<g id="clust6" class="cluster">
<title>cluster_ConfigModule_providers</title>
<polygon fill="none" stroke="black" points="16,-78 16,-130 166,-130 166,-78 16,-78"/>
</g>
<!-- CacheModule -->
<g id="node1" class="node">
<title>CacheModule</title>
<polygon fill="#8dd3c7" stroke="black" points="480.03,-122 477.03,-126 456.03,-126 453.03,-122 385.97,-122 385.97,-86 480.03,-86 480.03,-122"/>
<text text-anchor="middle" x="433" y="-99.8" font-family="Times,serif" font-size="14.00">CacheModule</text>
</g>
<!-- ConfigModule -->
<g id="node4" class="node">
<title>ConfigModule</title>
<polygon fill="#8dd3c7" stroke="black" points="325.44,-187 322.44,-191 301.44,-191 298.44,-187 226.56,-187 226.56,-151 325.44,-151 325.44,-187"/>
<text text-anchor="middle" x="276" y="-164.8" font-family="Times,serif" font-size="14.00">ConfigModule</text>
</g>
<!-- CacheModule&#45;&gt;ConfigModule -->
<g id="edge1" class="edge">
<title>CacheModule&#45;&gt;ConfigModule</title>
<path fill="none" stroke="black" d="M433,-122.11C433,-141.34 433,-169 433,-169 433,-169 335.25,-169 335.25,-169"/>
<polygon fill="black" stroke="black" points="335.25,-165.5 325.25,-169 335.24,-172.5 335.25,-165.5"/>
</g>
<!-- LogModule -->
<g id="node2" class="node">
<title>LogModule</title>
<polygon fill="#8dd3c7" stroke="black" points="368.1,-122 365.1,-126 344.1,-126 341.1,-122 285.9,-122 285.9,-86 368.1,-86 368.1,-122"/>
<text text-anchor="middle" x="327" y="-99.8" font-family="Times,serif" font-size="14.00">LogModule</text>
</g>
<!-- LogModule&#45;&gt;ConfigModule -->
<g id="edge2" class="edge">
<title>LogModule&#45;&gt;ConfigModule</title>
<path fill="none" stroke="black" d="M305.58,-122.11C305.58,-122.11 305.58,-140.99 305.58,-140.99"/>
<polygon fill="black" stroke="black" points="302.08,-140.99 305.58,-150.99 309.08,-140.99 302.08,-140.99"/>
</g>
<!-- UserModule -->
<g id="node3" class="node">
<title>UserModule</title>
<polygon fill="#8dd3c7" stroke="black" points="267.98,-122 264.98,-126 243.98,-126 240.98,-122 182.02,-122 182.02,-86 267.98,-86 267.98,-122"/>
<text text-anchor="middle" x="225" y="-99.8" font-family="Times,serif" font-size="14.00">UserModule</text>
</g>
<!-- UserModule&#45;&gt;ConfigModule -->
<g id="edge3" class="edge">
<title>UserModule&#45;&gt;ConfigModule</title>
<path fill="none" stroke="black" d="M247.38,-122.11C247.38,-122.11 247.38,-140.99 247.38,-140.99"/>
<polygon fill="black" stroke="black" points="243.88,-140.99 247.38,-150.99 250.88,-140.99 243.88,-140.99"/>
</g>
<!-- ConfigService  -->
<g id="node5" class="node">
<title>ConfigService </title>
<polygon fill="#fb8072" stroke="black" points="326.37,-252 225.63,-252 225.63,-216 326.37,-216 326.37,-252"/>
<text text-anchor="middle" x="276" y="-229.8" font-family="Times,serif" font-size="14.00">ConfigService </text>
</g>
<!-- ConfigModule&#45;&gt;ConfigService  -->
<g id="edge4" class="edge">
<title>ConfigModule&#45;&gt;ConfigService </title>
<path fill="none" stroke="black" stroke-dasharray="5,2" d="M276,-187.11C276,-187.11 276,-205.99 276,-205.99"/>
<polygon fill="black" stroke="black" points="272.5,-205.99 276,-215.99 279.5,-205.99 272.5,-205.99"/>
</g>
<!-- ConfigService -->
<g id="node6" class="node">
<title>ConfigService</title>
<ellipse fill="#fdb462" stroke="black" cx="91" cy="-104" rx="66.63" ry="18"/>
<text text-anchor="middle" x="91" y="-99.8" font-family="Times,serif" font-size="14.00">ConfigService</text>
</g>
<!-- ConfigService&#45;&gt;ConfigModule -->
<g id="edge5" class="edge">
<title>ConfigService&#45;&gt;ConfigModule</title>
<path fill="none" stroke="black" d="M91,-122.11C91,-141.34 91,-169 91,-169 91,-169 216.42,-169 216.42,-169"/>
<polygon fill="black" stroke="black" points="216.42,-172.5 226.42,-169 216.42,-165.5 216.42,-172.5"/>
</g>
</g>
</svg>
