<?xml version="1.0" encoding="UTF-8" standalone="no"?>
<!DOCTYPE svg PUBLIC "-//W3C//DTD SVG 1.1//EN"
 "http://www.w3.org/Graphics/SVG/1.1/DTD/svg11.dtd">
<!-- Generated by graphviz version 2.47.0 (20210316.0004)
 -->
<!-- Title: dependencies Pages: 1 -->
<svg width="504pt" height="284pt"
 viewBox="0.00 0.00 504.00 284.00" xmlns="http://www.w3.org/2000/svg" xmlns:xlink="http://www.w3.org/1999/xlink">
<g id="graph0" class="graph" transform="scale(1 1) rotate(0) translate(4 280)">
<title>dependencies</title>
<polygon fill="white" stroke="transparent" points="-4,4 -4,-280 500,-280 500,4 -4,4"/>
<text text-anchor="start" x="227.01" y="-42.4" font-family="Times-12" font-weight="bold" font-size="14.00">Legend</text>
<polygon fill="#ffffb3" stroke="transparent" points="14,-10 14,-30 34,-30 34,-10 14,-10"/>
<text text-anchor="start" x="37.63" y="-15.4" font-family="Times-12" font-size="14.00"> &#160;Declarations</text>
<polygon fill="#8dd3c7" stroke="transparent" points="127,-10 127,-30 147,-30 147,-10 127,-10"/>
<text text-anchor="start" x="150.73" y="-15.4" font-family="Times-12" font-size="14.00"> &#160;Module</text>
<polygon fill="#80b1d3" stroke="transparent" points="213,-10 213,-30 233,-30 233,-10 213,-10"/>
<text text-anchor="start" x="236.78" y="-15.4" font-family="Times-12" font-size="14.00"> &#160;Bootstrap</text>
<polygon fill="#fdb462" stroke="transparent" points="310,-10 310,-30 330,-30 330,-10 310,-10"/>
<text text-anchor="start" x="333.67" y="-15.4" font-family="Times-12" font-size="14.00"> &#160;Providers</text>
<polygon fill="#fb8072" stroke="transparent" points="406,-10 406,-30 426,-30 426,-10 406,-10"/>
<text text-anchor="start" x="429.73" y="-15.4" font-family="Times-12" font-size="14.00"> &#160;Exports</text>
<g id="clust1" class="cluster">
<title>cluster_ConfigModule</title>
<polygon fill="none" stroke="black" stroke-dasharray="1,5" points="56,-70 56,-268 440,-268 440,-70 56,-70"/>
</g>
<g id="clust6" class="cluster">
<title>cluster_ConfigModule_providers</title>
<polygon fill="none" stroke="black" points="282,-78 282,-130 432,-130 432,-78 282,-78"/>
</g>
<g id="clust4" class="cluster">
<title>cluster_ConfigModule_exports</title>
<polygon fill="none" stroke="black" points="161,-208 161,-260 277,-260 277,-208 161,-208"/>
</g>
<g id="clust3" class="cluster">
<title>cluster_ConfigModule_imports</title>
<polygon fill="none" stroke="black" points="64,-78 64,-130 274,-130 274,-78 64,-78"/>
</g>
<!-- CacheModule -->
<g id="node1" class="node">
<title>CacheModule</title>
<polygon fill="#8dd3c7" stroke="black" points="266.03,-122 263.03,-126 242.03,-126 239.03,-122 171.97,-122 171.97,-86 266.03,-86 266.03,-122"/>
<text text-anchor="middle" x="219" y="-99.8" font-family="Times,serif" font-size="14.00">CacheModule</text>
</g>
<!-- ConfigModule -->
<g id="node3" class="node">
<title>ConfigModule</title>
<polygon fill="#8dd3c7" stroke="black" points="268.44,-187 265.44,-191 244.44,-191 241.44,-187 169.56,-187 169.56,-151 268.44,-151 268.44,-187"/>
<text text-anchor="middle" x="219" y="-164.8" font-family="Times,serif" font-size="14.00">ConfigModule</text>
</g>
<!-- CacheModule&#45;&gt;ConfigModule -->
<g id="edge1" class="edge">
<title>CacheModule&#45;&gt;ConfigModule</title>
<path fill="none" stroke="black" d="M219,-122.11C219,-122.11 219,-140.99 219,-140.99"/>
<polygon fill="black" stroke="black" points="215.5,-140.99 219,-150.99 222.5,-140.99 215.5,-140.99"/>
</g>
<!-- LogModule -->
<g id="node2" class="node">
<title>LogModule</title>
<polygon fill="#8dd3c7" stroke="black" points="154.1,-122 151.1,-126 130.1,-126 127.1,-122 71.9,-122 71.9,-86 154.1,-86 154.1,-122"/>
<text text-anchor="middle" x="113" y="-99.8" font-family="Times,serif" font-size="14.00">LogModule</text>
</g>
<!-- LogModule&#45;&gt;ConfigModule -->
<g id="edge2" class="edge">
<title>LogModule&#45;&gt;ConfigModule</title>
<path fill="none" stroke="black" d="M113,-122.11C113,-141.34 113,-169 113,-169 113,-169 159.72,-169 159.72,-169"/>
<polygon fill="black" stroke="black" points="159.72,-172.5 169.72,-169 159.72,-165.5 159.72,-172.5"/>
</g>
<!-- ConfigService  -->
<g id="node4" class="node">
<title>ConfigService </title>
<polygon fill="#fb8072" stroke="black" points="269.37,-252 168.63,-252 168.63,-216 269.37,-216 269.37,-252"/>
<text text-anchor="middle" x="219" y="-229.8" font-family="Times,serif" font-size="14.00">ConfigService </text>
</g>
<!-- ConfigModule&#45;&gt;ConfigService  -->
<g id="edge3" class="edge">
<title>ConfigModule&#45;&gt;ConfigService </title>
<path fill="none" stroke="black" stroke-dasharray="5,2" d="M219,-187.11C219,-187.11 219,-205.99 219,-205.99"/>
<polygon fill="black" stroke="black" points="215.5,-205.99 219,-215.99 222.5,-205.99 215.5,-205.99"/>
</g>
<!-- ConfigService -->
<g id="node5" class="node">
<title>ConfigService</title>
<ellipse fill="#fdb462" stroke="black" cx="357" cy="-104" rx="66.63" ry="18"/>
<text text-anchor="middle" x="357" y="-99.8" font-family="Times,serif" font-size="14.00">ConfigService</text>
</g>
<!-- ConfigService&#45;&gt;ConfigModule -->
<g id="edge4" class="edge">
<title>ConfigService&#45;&gt;ConfigModule</title>
<path fill="none" stroke="black" d="M357,-122.11C357,-141.34 357,-169 357,-169 357,-169 278.43,-169 278.43,-169"/>
<polygon fill="black" stroke="black" points="278.43,-165.5 268.43,-169 278.43,-172.5 278.43,-165.5"/>
</g>
</g>
</svg>
