<svg width="40" height="40" viewBox="0 0 40 40" fill="none" xmlns="http://www.w3.org/2000/svg">
    <path d="M21.6666 8.33331C25.3499 8.33331 28.3333 11.3166 28.3333 15C28.3333 17.5 26.9999 19.6166 24.9999 20.7666V18.7333C26.0166 17.8166 26.6666 16.4833 26.6666 15C26.6666 12.2333 24.4333 9.99998 21.6666 9.99998C18.8999 9.99998 16.6666 12.2333 16.6666 15C16.6666 16.4833 17.3166 17.8166 18.3333 18.7333V20.7666C16.3333 19.6166 14.9999 17.5 14.9999 15C14.9999 11.3166 17.9833 8.33331 21.6666 8.33331ZM33.3333 34.1666C33.2833 35.5333 32.1999 36.6166 30.8333 36.6666H21.6666C21.0333 36.6666 20.4333 36.4166 19.9999 35.95L13.3333 28.95L14.5666 27.6666C14.8833 27.3166 15.3333 27.1333 15.8333 27.1333H16.1666L19.9999 30V15C19.9999 14.0833 20.7499 13.3333 21.6666 13.3333C22.5833 13.3333 23.3333 14.0833 23.3333 15V22.45L25.3499 22.6666L31.9166 26.3166C32.7999 26.7166 33.3333 27.6 33.3333 28.5666V34.1666ZM33.3333 3.33331H6.66659C4.83325 3.33331 3.33325 4.83331 3.33325 6.66665V20C3.33325 20.884 3.68444 21.7319 4.30956 22.357C4.93468 22.9821 5.78253 23.3333 6.66659 23.3333H13.3333V20H6.66659V6.66665H33.3333V20H29.9999V23.3333H33.3333V23.2666L33.3999 23.3333C35.2166 23.3333 36.6666 21.8166 36.6666 20V6.66665C36.6666 5.78259 36.3154 4.93474 35.6903 4.30962C35.0652 3.6845 34.2173 3.33331 33.3333 3.33331Z"
          fill="#D2D2D2"/>
</svg>
