<svg width="40" height="40" viewBox="0 0 40 40" fill="none" xmlns="http://www.w3.org/2000/svg">
    <path d="M3.87494 34.0525C3.30794 33.3174 2.95302 32.4412 2.84869 31.5187V31.0712C2.92494 30.8362 3.28994 30.0825 3.84869 28.9775H10.8237L10.5374 29.45C8.78744 32.35 7.43869 34.575 7.16244 34.86C6.12369 35.9262 4.69994 35.2612 3.87119 34.0525H3.87494ZM22.0637 17.615C21.6399 16.99 21.2437 16.415 20.8849 15.9225C20.7846 15.7791 20.6511 15.662 20.4958 15.5812C20.3406 15.5004 20.1681 15.4582 19.9931 15.4582C19.818 15.4582 19.6456 15.5004 19.4903 15.5812C19.3351 15.662 19.2016 15.7791 19.1012 15.9225C18.7424 16.4137 18.3512 16.985 17.9224 17.615H9.86119C12.6374 12.4612 15.2974 7.61498 15.8287 6.80248C16.9737 5.05248 17.3224 4.66748 19.2549 4.60498H20.7299C22.6637 4.66748 23.0124 5.04998 24.1549 6.80248C24.6874 7.61873 27.3474 12.4612 30.1237 17.615H22.0637ZM29.1549 28.9762L29.4412 29.4487C31.1912 32.3487 32.5399 34.5737 32.8162 34.8587C33.8549 35.925 35.2787 35.26 36.1074 34.0512C36.7645 33.2199 37.1299 32.1957 37.1474 31.1362C36.8561 30.3944 36.5158 29.6728 36.1287 28.9762H29.1549ZM4.83744 18.8075C4.5249 18.8124 4.21639 18.8789 3.92962 19.0032C3.64284 19.1276 3.38343 19.3074 3.16627 19.5322C2.9491 19.757 2.77846 20.0225 2.66412 20.3134C2.54977 20.6043 2.49398 20.915 2.49994 21.2275V25.365C2.49398 25.6775 2.54977 25.9881 2.66412 26.279C2.77846 26.57 2.9491 26.8354 3.16627 27.0603C3.38343 27.2851 3.64284 27.4649 3.92962 27.5892C4.21639 27.7136 4.5249 27.7801 4.83744 27.785H35.1624C35.475 27.7801 35.7835 27.7136 36.0703 27.5892C36.357 27.4649 36.6165 27.2851 36.8336 27.0603C37.0508 26.8354 37.2214 26.57 37.3358 26.279C37.4501 25.9881 37.5059 25.6775 37.4999 25.365V21.2275C37.5059 20.9152 37.4502 20.6047 37.336 20.314C37.2218 20.0232 37.0514 19.7579 36.8345 19.5331C36.6176 19.3083 36.3585 19.1285 36.072 19.004C35.7855 18.8795 35.4773 18.8127 35.1649 18.8075H4.83744ZM4.83744 20.9112H35.1624C35.2033 20.9119 35.2436 20.9206 35.281 20.9368C35.3184 20.9531 35.3523 20.9766 35.3806 21.006C35.409 21.0354 35.4312 21.0701 35.4461 21.1081C35.461 21.1461 35.4683 21.1867 35.4674 21.2275V25.365C35.4681 25.4057 35.4607 25.4461 35.4458 25.484C35.4308 25.5219 35.4085 25.5564 35.3802 25.5857C35.3519 25.6149 35.3181 25.6383 35.2807 25.6545C35.2433 25.6707 35.2032 25.6793 35.1624 25.68H30.2874V23.68C30.2875 23.517 30.2239 23.3604 30.1102 23.2437C29.9964 23.1269 29.8416 23.0592 29.6787 23.055H28.7312C28.5683 23.0592 28.4134 23.1269 28.2997 23.2437C28.186 23.3604 28.1224 23.517 28.1224 23.68V25.68H21.0824V23.68C21.0825 23.517 21.0189 23.3604 20.9052 23.2437C20.7914 23.1269 20.6366 23.0592 20.4737 23.055H19.5262C19.3633 23.0592 19.2084 23.1269 19.0947 23.2437C18.981 23.3604 18.9174 23.517 18.9174 23.68V25.68H11.8749V23.68C11.875 23.517 11.8114 23.3604 11.6977 23.2437C11.5839 23.1269 11.4291 23.0592 11.2662 23.055H10.3199C10.157 23.0592 10.0022 23.1269 9.88847 23.2437C9.77475 23.3604 9.71114 23.517 9.71119 23.68V25.68H4.83744C4.79673 25.6793 4.75655 25.6707 4.71919 25.6545C4.68182 25.6383 4.64802 25.6149 4.61969 25.5857C4.59137 25.5564 4.56909 25.5219 4.55412 25.484C4.53915 25.4461 4.53178 25.4057 4.53244 25.365V21.2275C4.53162 21.1867 4.53886 21.1461 4.55375 21.1081C4.56865 21.0701 4.5909 21.0354 4.61924 21.006C4.64758 20.9766 4.68145 20.9531 4.71889 20.9368C4.75634 20.9206 4.79662 20.9119 4.83744 20.9112Z"
          fill="#D2D2D2"/>
</svg>
