<svg width="40" height="40" viewBox="0 0 40 40" fill="none" xmlns="http://www.w3.org/2000/svg">
    <path d="M36.3585 7.73541C36.2087 7.56436 36.0252 7.42607 35.8195 7.32918C35.6138 7.23229 35.3904 7.1789 35.1631 7.17234C31.6323 7.08003 27.1646 3.30464 24.2108 1.82311C22.3862 0.910798 21.1816 0.30926 20.277 0.150798C20.0933 0.124033 19.9066 0.124551 19.7231 0.152336C18.8185 0.310798 17.6139 0.912337 15.7908 1.82464C12.837 3.30464 8.36926 7.08157 4.83849 7.17234C4.61106 7.17924 4.38747 7.23277 4.18158 7.32963C3.97569 7.42649 3.79189 7.5646 3.64157 7.73541C3.32999 8.08793 3.16923 8.54866 3.19387 9.01849C3.95234 24.4385 9.4831 33.9816 19.1877 39.5277C19.44 39.6708 19.72 39.7446 19.9985 39.7446C20.2769 39.7446 20.557 39.6708 20.8108 39.5277C30.5154 33.9816 36.0446 24.4385 36.8046 9.01849C36.8307 8.54873 36.6704 8.08765 36.3585 7.73541ZM20 27.78C17.5286 27.78 15.1584 26.7983 13.4109 25.0507C11.6633 23.3032 10.6816 20.933 10.6816 18.4616C10.6816 15.9902 11.6633 13.62 13.4109 11.8724C15.1584 10.1249 17.5286 9.14311 20 9.14311C22.4714 9.14311 24.8416 10.1249 26.5892 11.8724C28.3367 13.62 29.3185 15.9902 29.3185 18.4616C29.3185 20.933 28.3367 23.3032 26.5892 25.0507C24.8416 26.7983 22.4714 27.78 20 27.78ZM23.8154 13.0908L14.6293 22.277C13.8295 21.1653 13.3981 19.831 13.3954 18.4616C13.3979 16.7107 14.0945 15.0322 15.3326 13.7941C16.5706 12.556 18.2491 11.8594 20 11.857C21.4246 11.857 22.7339 12.32 23.8154 13.0908ZM25.3693 14.6462C26.14 15.7262 26.6046 17.0385 26.6046 18.4616C26.6022 20.2125 25.9056 21.891 24.6675 23.129C23.4294 24.3671 21.7509 25.0637 20 25.0662C18.6305 25.0637 17.2962 24.6322 16.1846 23.8323L25.3693 14.6462Z"
          fill="#D2D2D2"/>
</svg>
