<svg width="40" height="40" viewBox="0 0 40 40" fill="none" xmlns="http://www.w3.org/2000/svg">
    <path d="M5 18.3333H35M20 18.3333V31.6666M6.66667 31.6666H33.3333C33.7754 31.6666 34.1993 31.4911 34.5118 31.1785C34.8244 30.8659 35 30.442 35 30V9.99998C35 9.55795 34.8244 9.13403 34.5118 8.82147C34.1993 8.50891 33.7754 8.33331 33.3333 8.33331H6.66667C6.22464 8.33331 5.80072 8.50891 5.48816 8.82147C5.17559 9.13403 5 9.55795 5 9.99998V30C5 30.442 5.17559 30.8659 5.48816 31.1785C5.80072 31.4911 6.22464 31.6666 6.66667 31.6666Z"
          stroke="#D2D2D2" stroke-width="2"/>
</svg>
