<svg width="40" height="40" viewBox="0 0 40 40" fill="none" xmlns="http://www.w3.org/2000/svg">
    <path d="M16.1775 22.2309L12.5192 26.9059L10.6892 24.5775L6.87333 29.3384H11.0867L16.7517 29.3692H21.5267L16.1775 22.2309ZM7.25 6.65002V10.15H3.75C3.75 9.22177 4.11875 8.33153 4.77513 7.67515C5.4315 7.01877 6.32174 6.65002 7.25 6.65002ZM3.75 12.45H7.25V15.95H3.75V12.45ZM32.75 6.65002C33.6783 6.65002 34.5685 7.01877 35.2249 7.67515C35.8812 8.33153 36.25 9.22177 36.25 10.15H32.75V6.65002ZM9.55 6.65002H13.05V10.15H9.55V6.65002ZM15.35 6.65002H18.85V10.15H15.35V6.65002ZM21.15 6.65002H24.65V10.15H21.15V6.65002ZM26.95 6.65002H30.45V10.15H26.95V6.65002ZM26.95 29.85H30.45V33.35H26.95V29.85ZM36.25 29.85C36.25 30.7783 35.8812 31.6685 35.2249 32.3249C34.5685 32.9813 33.6783 33.35 32.75 33.35V29.85H36.25ZM36.25 12.45V15.95H32.75V12.45H36.25ZM36.25 18.25V21.75H32.75V18.25H36.25ZM36.25 24.05V27.55H32.75V24.05H36.25Z"
          stroke="#D2D2D2" stroke-linecap="round" stroke-linejoin="round"/>
    <path d="M3.75 18.25H24.65V33.35H7.25C6.32174 33.35 5.4315 32.9813 4.77513 32.3249C4.11875 31.6685 3.75 30.7783 3.75 29.85V18.25Z"
          stroke="#D2D2D2" stroke-linecap="round" stroke-linejoin="round"/>
</svg>
