<svg width="40" height="40" viewBox="0 0 40 40" fill="none" xmlns="http://www.w3.org/2000/svg">
    <path fill-rule="evenodd" clip-rule="evenodd"
          d="M20.4166 4.72331C19.6499 4.59331 18.6033 4.58331 16.7166 4.58331C13.5216 4.58331 11.2499 4.58665 9.52992 4.81665C7.84325 5.04165 6.87492 5.46665 6.16992 6.16998C5.46492 6.87498 5.04159 7.84165 4.81659 9.51831C4.58659 11.2316 4.58325 13.4883 4.58325 16.6683V23.335C4.58325 26.5116 4.58659 28.7683 4.81659 30.4816C5.04159 32.1583 5.46492 33.125 6.16992 33.8316C6.87492 34.535 7.84159 34.9583 9.51825 35.1833C11.2316 35.415 13.4883 35.4166 16.6666 35.4166H23.3333C26.5116 35.4166 28.7699 35.4133 30.4833 35.1833C32.1583 34.9583 33.1249 34.535 33.8299 33.83C34.5349 33.125 34.9583 32.1583 35.1833 30.4816C35.4133 28.77 35.4166 26.5116 35.4166 23.3333V22.605C35.4166 20.045 35.3999 18.8316 35.1266 17.9166H29.9099C28.0216 17.9166 26.4799 17.9166 25.2599 17.7533C23.9883 17.5816 22.8849 17.2116 22.0033 16.33C21.1216 15.4483 20.7516 14.3466 20.5799 13.0716C20.4166 11.855 20.4166 10.3116 20.4166 8.42165V4.72331ZM22.9166 6.01665V8.33331C22.9166 10.3333 22.9199 11.7066 23.0583 12.7383C23.1916 13.735 23.4316 14.2233 23.7716 14.5616C24.1099 14.9016 24.5983 15.1416 25.5949 15.275C26.6266 15.4133 27.9999 15.4166 29.9999 15.4166H33.3666C32.727 14.8076 32.0769 14.2098 31.4166 13.6233L24.8183 7.68498C24.1958 7.11599 23.5618 6.55977 22.9166 6.01665ZM16.9583 2.08331C19.2666 2.08331 20.7583 2.08331 22.1299 2.60831C23.5016 3.13498 24.6049 4.12831 26.3133 5.66665L26.4916 5.82665L33.0883 11.765L33.2966 11.9516C35.2699 13.7266 36.5466 14.875 37.2316 16.415C37.9183 17.955 37.9183 19.6716 37.9166 22.325V23.4266C37.9166 26.49 37.9166 28.9166 37.6616 30.815C37.3983 32.7683 36.8449 34.35 35.5982 35.5983C34.3499 36.845 32.7683 37.3983 30.8149 37.6616C28.9149 37.9166 26.4899 37.9166 23.4266 37.9166H16.5733C13.5099 37.9166 11.0833 37.9166 9.18492 37.6616C7.23159 37.3983 5.64992 36.845 4.40159 35.5983C3.15492 34.35 2.60159 32.7683 2.33825 30.815C2.08325 28.915 2.08325 26.49 2.08325 23.4266V16.575C2.08325 13.5116 2.08325 11.085 2.33825 9.18665C2.60159 7.23331 3.15492 5.65165 4.40159 4.40331C5.65159 3.15498 7.23659 2.60331 9.19825 2.33998C11.1049 2.08498 13.5433 2.08498 16.6233 2.08498H16.7166L16.9583 2.08331Z"
          fill="#D2D2D2"/>
</svg>
