<svg width="40" height="40" viewBox="0 0 40 40" fill="none" xmlns="http://www.w3.org/2000/svg">
    <path d="M11.9042 32.0883H10.9292C10.9292 32.0883 10.7792 32.8383 11.0042 33.7375C11.3042 34.6375 10.4042 33.8875 10.4042 33.8875C9.43002 32.2375 9.05502 31.1883 8.75585 29.3891C7.40585 21.2183 12.8784 12.5225 12.5784 11.4725C12.2784 10.4225 11.6034 10.6475 11.6034 10.6475C7.93085 11.5475 6.35669 21.6675 5.98169 24.7416C5.98169 24.9666 5.60669 25.0416 5.53169 24.8166C4.78169 23.1666 4.55669 21.3683 4.40669 19.6433C3.58252 11.5475 9.58002 4.35081 18.2009 3.07665C20.1509 2.77665 21.2 2.92665 22.5492 3.30165C22.9242 3.37665 22.9992 3.82581 22.7742 4.05081C13.0284 13.7966 12.5042 28.34 12.5042 31.4883C12.5042 31.8633 12.2042 32.0883 11.9042 32.0883Z"
          stroke="#D2D2D2" stroke-width="0.833333" stroke-linecap="round" stroke-linejoin="round"/>
    <path d="M30.3459 4.20003C30.6459 4.05003 30.5709 3.52586 30.2709 3.52586C23.7484 2.47586 11.3793 22.3425 16.7018 36.8109C17.0018 37.1859 17.4518 37.1859 17.3018 36.7359C16.8518 34.8617 17.7518 34.4117 18.6518 34.3367C19.1759 34.2617 19.6259 33.7367 19.5509 33.2125C18.8009 17.095 27.2718 9.44836 29.8209 7.49919C30.1959 7.19919 30.1959 6.67419 29.8209 6.44919L29.0709 5.84919C28.3959 5.32503 29.5959 4.64919 30.3459 4.20003Z"
          stroke="#D2D2D2" stroke-width="0.833333" stroke-linecap="round" stroke-linejoin="round"/>
    <path d="M33.7193 9.29833C33.3443 9.74833 33.3443 10.3483 33.6443 10.8733C34.9681 13.2043 35.6655 15.8385 35.6684 18.5192C35.6684 25.4908 31.0951 31.4133 24.7234 33.4375C24.4234 33.5125 24.2734 33.7375 24.1234 33.9625C23.8234 34.6375 23.9734 35.3117 24.3484 36.2858C18.4259 30.6633 26.5976 8.25 35.1434 8.25C34.6184 8.325 34.0184 8.925 33.7184 9.29917L33.7193 9.29833Z"
          stroke="#D2D2D2" stroke-width="0.833333" stroke-linecap="round" stroke-linejoin="round"/>
</svg>
