<svg width="40" height="40" viewBox="0 0 40 40" fill="none" xmlns="http://www.w3.org/2000/svg">
    <path fill-rule="evenodd" clip-rule="evenodd"
          d="M7.5 2.5C6.17392 2.5 4.90215 3.02678 3.96447 3.96447C3.02678 4.90215 2.5 6.17392 2.5 7.5V32.5C2.5 33.8261 3.02678 35.0979 3.96447 36.0355C4.90215 36.9732 6.17392 37.5 7.5 37.5H18.125C18.6223 37.5 19.0992 37.3025 19.4508 36.9508C19.8025 36.5992 20 36.1223 20 35.625C20 35.1277 19.8025 34.6508 19.4508 34.2992C19.0992 33.9475 18.6223 33.75 18.125 33.75H7.5C7.16848 33.75 6.85054 33.6183 6.61612 33.3839C6.3817 33.1495 6.25 32.8315 6.25 32.5V7.5C6.25 7.16848 6.3817 6.85054 6.61612 6.61612C6.85054 6.3817 7.16848 6.25 7.5 6.25H32.5C32.8315 6.25 33.1495 6.3817 33.3839 6.61612C33.6183 6.85054 33.75 7.16848 33.75 7.5V18.125C33.75 18.6223 33.9475 19.0992 34.2992 19.4508C34.6508 19.8025 35.1277 20 35.625 20C36.1223 20 36.5992 19.8025 36.9508 19.4508C37.3025 19.0992 37.5 18.6223 37.5 18.125V7.5C37.5 6.17392 36.9732 4.90215 36.0355 3.96447C35.0979 3.02678 33.8261 2.5 32.5 2.5H7.5ZM37.5 26.875C37.5 26.3777 37.3025 25.9008 36.9508 25.5492C36.5992 25.1975 36.1223 25 35.625 25C35.1277 25 34.6508 25.1975 34.2992 25.5492C33.9475 25.9008 33.75 26.3777 33.75 26.875V32.5C33.75 32.8315 33.6183 33.1495 33.3839 33.3839C33.1495 33.6183 32.8315 33.75 32.5 33.75H26.875C26.3777 33.75 25.9008 33.9475 25.5492 34.2992C25.1975 34.6508 25 35.1277 25 35.625C25 36.1223 25.1975 36.5992 25.5492 36.9508C25.9008 37.3025 26.3777 37.5 26.875 37.5H32.5C33.8261 37.5 35.0979 36.9732 36.0355 36.0355C36.9732 35.0979 37.5 33.8261 37.5 32.5V26.875ZM27.8325 24.6675L23.75 20L17.56 27.075L13.75 22.5L10 27V30H22.5L27.8325 24.6675ZM16.25 20C17.2446 20 18.1984 19.6049 18.9017 18.9017C19.6049 18.1984 20 17.2446 20 16.25C20 15.2554 19.6049 14.3016 18.9017 13.5983C18.1984 12.8951 17.2446 12.5 16.25 12.5C15.2554 12.5 14.3016 12.8951 13.5983 13.5983C12.8951 14.3016 12.5 15.2554 12.5 16.25C12.5 17.2446 12.8951 18.1984 13.5983 18.9017C14.3016 19.6049 15.2554 20 16.25 20Z"
          fill="#D2D2D2"/>
</svg>
