<svg width="40" height="40" viewBox="0 0 40 40" fill="none" xmlns="http://www.w3.org/2000/svg">
    <path d="M10.8333 18.3333L20 3.33331L29.1667 18.3333H10.8333ZM29.1667 36.6666C27.0833 36.6666 25.3128 35.9378 23.855 34.48C22.3972 33.0222 21.6678 31.2511 21.6667 29.1666C21.6667 27.0833 22.3961 25.3128 23.855 23.855C25.3139 22.3972 27.0844 21.6678 29.1667 21.6666C31.25 21.6666 33.0211 22.3961 34.48 23.855C35.9389 25.3139 36.6678 27.0844 36.6667 29.1666C36.6667 31.25 35.9378 33.0211 34.48 34.48C33.0222 35.9389 31.2511 36.6678 29.1667 36.6666ZM5 35.8333V22.5H18.3333V35.8333H5ZM29.1667 33.3333C30.3333 33.3333 31.3194 32.9305 32.125 32.125C32.9306 31.3194 33.3333 30.3333 33.3333 29.1666C33.3333 28 32.9306 27.0139 32.125 26.2083C31.3194 25.4028 30.3333 25 29.1667 25C28 25 27.0139 25.4028 26.2083 26.2083C25.4028 27.0139 25 28 25 29.1666C25 30.3333 25.4028 31.3194 26.2083 32.125C27.0139 32.9305 28 33.3333 29.1667 33.3333ZM8.33333 32.5H15V25.8333H8.33333V32.5ZM16.75 15H23.25L20 9.74998L16.75 15Z"
          fill="#D2D2D2"/>
</svg>
