<svg width="40" height="40" viewBox="0 0 40 40" fill="none" xmlns="http://www.w3.org/2000/svg">
    <path fill-rule="evenodd" clip-rule="evenodd"
          d="M5 5H20V13.75L21.25 15H30V17.5H32.5V12L32.125 11.1L23.925 2.85L23.05 2.5H3.75L2.5 3.75V36.25L3.75 37.5H12.5V35H5V5ZM22.5 5L30 12.5H22.5V5ZM36.25 20H16.25L15 21.25V36.25L16.25 37.5H36.25L37.5 36.25V21.25L36.25 20ZM35 22.5V32.5L30.925 28.5H29.15L26.25 31.425L20.925 26.1H19.15L17.5 27.75V22.5H35ZM28 33.175L30.025 31.15L33.875 35H29.825L28 33.175ZM17.5 35V31.275L20 28.775L26.3 35H17.5ZM31.25 26.25C31.5815 26.25 31.8995 26.1183 32.1339 25.8839C32.3683 25.6495 32.5 25.3315 32.5 25C32.5 24.6685 32.3683 24.3505 32.1339 24.1161C31.8995 23.8817 31.5815 23.75 31.25 23.75C30.9185 23.75 30.6005 23.8817 30.3661 24.1161C30.1317 24.3505 30 24.6685 30 25C30 25.3315 30.1317 25.6495 30.3661 25.8839C30.6005 26.1183 30.9185 26.25 31.25 26.25Z"
          fill="#D2D2D2"/>
</svg>
