<svg width="40" height="40" viewBox="0 0 40 40" fill="none" xmlns="http://www.w3.org/2000/svg">
    <path d="M8.01341 27.0834C7.63119 27.0834 7.31119 26.9545 7.05341 26.6967C6.79564 26.4389 6.66675 26.1189 6.66675 25.7367V14.2634C6.66675 13.8811 6.79564 13.5611 7.05341 13.3034C7.31119 13.0456 7.63119 12.9167 8.01341 12.9167H19.4867C19.869 12.9167 20.189 13.0456 20.4467 13.3034C20.7045 13.5611 20.8334 13.8811 20.8334 14.2634V25.7367C20.8334 26.1189 20.7045 26.4389 20.4467 26.6967C20.189 26.9545 19.869 27.0834 19.4867 27.0834H8.01341ZM8.33341 25.4167H19.1667V14.5834H8.33341V25.4167ZM7.50008 8.33335C7.26341 8.33335 7.06564 8.25335 6.90675 8.09335C6.74786 7.93335 6.66786 7.73502 6.66675 7.49835C6.66675 7.2628 6.74675 7.06502 6.90675 6.90502C7.06675 6.74613 7.26453 6.66669 7.50008 6.66669H32.5001C32.7367 6.66669 32.9345 6.74669 33.0934 6.90669C33.2534 7.06669 33.3334 7.26502 33.3334 7.50169C33.3334 7.73724 33.2534 7.93502 33.0934 8.09502C32.9345 8.25391 32.7367 8.33335 32.5001 8.33335H7.50008ZM25.6417 14.5834C25.4051 14.5834 25.2067 14.5034 25.0467 14.3434C24.8867 14.1834 24.8073 13.985 24.8084 13.7484C24.8084 13.5128 24.8879 13.315 25.0467 13.155C25.2067 12.9961 25.4051 12.9167 25.6417 12.9167H32.5001C32.7367 12.9167 32.9345 12.9967 33.0934 13.1567C33.2534 13.3167 33.3334 13.515 33.3334 13.7517C33.3334 13.9872 33.2534 14.185 33.0934 14.345C32.9345 14.5039 32.7367 14.5834 32.5001 14.5834H25.6417ZM25.6417 20.8334C25.4051 20.8334 25.2067 20.7534 25.0467 20.5934C24.8879 20.4334 24.8084 20.235 24.8084 19.9984C24.8084 19.7617 24.8879 19.5639 25.0467 19.405C25.2067 19.2461 25.4051 19.1667 25.6417 19.1667H32.5001C32.7367 19.1667 32.9345 19.2467 33.0934 19.4067C33.2534 19.5667 33.3334 19.765 33.3334 20.0017C33.3334 20.2384 33.2534 20.4361 33.0934 20.595C32.9345 20.7539 32.7367 20.8334 32.5001 20.8334H25.6417ZM25.6417 27.0834C25.4051 27.0834 25.2067 27.0034 25.0467 26.8434C24.8879 26.6834 24.8084 26.485 24.8084 26.2484C24.8084 26.0128 24.8879 25.815 25.0467 25.655C25.2067 25.4961 25.4051 25.4167 25.6417 25.4167H32.5001C32.7367 25.4167 32.9345 25.4967 33.0934 25.6567C33.2523 25.8167 33.3323 26.015 33.3334 26.2517C33.3334 26.4872 33.2534 26.685 33.0934 26.845C32.9345 27.0039 32.7367 27.0834 32.5001 27.0834H25.6417ZM7.50008 33.3334C7.26341 33.3334 7.06564 33.2534 6.90675 33.0934C6.74675 32.9334 6.66675 32.7356 6.66675 32.5C6.66675 32.2645 6.74675 32.0667 6.90675 31.9067C7.06675 31.7467 7.26453 31.6667 7.50008 31.6667H32.5001C32.7367 31.6667 32.9345 31.7467 33.0934 31.9067C33.2523 32.0667 33.3323 32.2645 33.3334 32.5C33.3334 32.7356 33.2534 32.9334 33.0934 33.0934C32.9345 33.2522 32.7367 33.3317 32.5001 33.3317L7.50008 33.3334Z"
          fill="#D2D2D2"/>
</svg>
