<svg width="40" height="40" viewBox="0 0 40 40" fill="none" xmlns="http://www.w3.org/2000/svg">
    <g clip-path="url(#clip0_107_138)">
        <path d="M15.3284 16.6667C14.9969 16.6667 14.6789 16.7984 14.4445 17.0328C14.2101 17.2672 14.0784 17.5852 14.0784 17.9167C14.0784 18.2482 14.2101 18.5661 14.4445 18.8006C14.6789 19.035 14.9969 19.1667 15.3284 19.1667H26.1617C26.4932 19.1667 26.8112 19.035 27.0456 18.8006C27.28 18.5661 27.4117 18.2482 27.4117 17.9167C27.4117 17.5852 27.28 17.2672 27.0456 17.0328C26.8112 16.7984 26.4932 16.6667 26.1617 16.6667H15.3284ZM11.3584 23.3334C11.0269 23.3334 10.7089 23.4651 10.4745 23.6995C10.2401 23.9339 10.1084 24.2518 10.1084 24.5834C10.1084 24.9149 10.2401 25.2328 10.4745 25.4672C10.7089 25.7017 11.0269 25.8334 11.3584 25.8334H22.1917C22.5232 25.8334 22.8412 25.7017 23.0756 25.4672C23.31 25.2328 23.4417 24.9149 23.4417 24.5834C23.4417 24.2518 23.31 23.9339 23.0756 23.6995C22.8412 23.4651 22.5232 23.3334 22.1917 23.3334H11.3584ZM8.72339 30C8.39187 30 8.07393 30.1317 7.83951 30.3661C7.60508 30.6006 7.47339 30.9185 7.47339 31.25C7.47339 31.5815 7.60508 31.8995 7.83951 32.1339C8.07393 32.3683 8.39187 32.5 8.72339 32.5H19.5567C19.8882 32.5 20.2062 32.3683 20.4406 32.1339C20.675 31.8995 20.8067 31.5815 20.8067 31.25C20.8067 30.9185 20.675 30.6006 20.4406 30.3661C20.2062 30.1317 19.8882 30 19.5567 30H8.72339Z"
              fill="#D2D2D2"/>
        <path d="M6.87535 3.20069e-05H33.1253C34.0289 -0.00273004 34.9241 0.173298 35.7593 0.517978C36.5946 0.862658 37.3534 1.36918 37.992 2.00837C38.6312 2.64701 39.1377 3.40581 39.4824 4.24105C39.8271 5.07629 40.0031 5.97147 40.0003 6.87503C40.0003 9.1817 39.207 11.5317 38.1203 13.8084C37.0337 16.0834 35.5953 18.4034 34.2003 20.6484L34.187 20.67C32.772 22.95 31.4053 25.155 30.387 27.2867C29.3637 29.425 28.7503 31.37 28.7503 33.125C28.7504 33.8809 28.9463 34.6238 29.3189 35.2815C29.6915 35.9391 30.2281 36.489 30.8765 36.8775C31.5248 37.2661 32.2628 37.48 33.0184 37.4985C33.774 37.517 34.5216 37.3393 35.1881 36.983C35.8547 36.6266 36.4176 36.1036 36.8219 35.4649C37.2262 34.8263 37.4581 34.0938 37.4951 33.3388C37.5321 32.5839 37.3728 31.8322 37.0329 31.1571C36.6929 30.482 36.1839 29.9065 35.5553 29.4867C35.4189 29.3954 35.3017 29.2782 35.2106 29.1416C35.1194 29.0051 35.0561 28.8519 35.0241 28.6909C34.9921 28.5299 34.9922 28.3641 35.0243 28.2031C35.0564 28.0421 35.1199 27.889 35.2112 27.7525C35.3024 27.6161 35.4197 27.4989 35.5562 27.4078C35.6928 27.3166 35.846 27.2533 36.007 27.2213C36.168 27.1893 36.3338 27.1894 36.4948 27.2215C36.6558 27.2536 36.8089 27.3171 36.9453 27.4084C38.1707 28.2284 39.1001 29.4206 39.5963 30.8091C40.0925 32.1976 40.1293 33.7088 39.7013 35.1197C39.2732 36.5307 38.403 37.7667 37.219 38.6455C36.0349 39.5242 34.5998 39.9991 33.1253 40H7.50035C5.67698 40 3.9283 39.2757 2.63899 37.9864C1.34968 36.6971 0.625348 34.9484 0.625348 33.125C0.625348 29.4017 2.72201 25.365 4.94201 21.6217C5.52201 20.645 6.11201 19.685 6.69201 18.7417C8.02535 16.5684 9.30368 14.4867 10.2653 12.5117H5.65035C4.27868 12.5117 2.50701 12.19 1.37201 10.7867C0.470581 9.68381 -0.0148887 8.29936 0.000348044 6.87503C0.000348044 5.05167 0.724676 3.30299 2.01399 2.01367C3.3033 0.72436 5.05198 3.20069e-05 6.87535 3.20069e-05ZM26.2503 33.125C26.2503 30.825 27.0437 28.4817 28.1303 26.2084C29.212 23.945 30.6453 21.6367 32.0353 19.3984L32.0637 19.3517C33.4787 17.0734 34.8453 14.865 35.8637 12.7317C36.887 10.59 37.5003 8.6367 37.5003 6.87503C37.5025 6.29988 37.3909 5.72998 37.1718 5.19819C36.9527 4.66639 36.6305 4.18322 36.2239 3.77653C35.8172 3.36983 35.334 3.04765 34.8022 2.82857C34.2704 2.60949 33.7005 2.49783 33.1253 2.50003C31.965 2.50003 30.8522 2.96097 30.0318 3.78144C29.2113 4.60191 28.7503 5.71471 28.7503 6.87503C28.7503 8.3167 29.452 9.39003 30.6953 10.2234C30.9179 10.3725 31.0866 10.5893 31.1767 10.8416C31.2667 11.094 31.2733 11.3686 31.1954 11.625C31.1176 11.8813 30.9594 12.1059 30.7442 12.2655C30.5291 12.4252 30.2683 12.5115 30.0003 12.5117H13.0203C11.937 14.9834 10.3137 17.6267 8.72535 20.21C8.16868 21.1167 7.61535 22.015 7.09201 22.8967C4.83368 26.7084 3.12535 30.1817 3.12535 33.125C3.12535 34.2854 3.58628 35.3982 4.40676 36.2186C5.22723 37.0391 6.34003 37.5 7.50035 37.5H27.822C26.8039 36.2696 26.248 34.722 26.2503 33.125ZM2.50035 6.87503C2.48368 7.7267 2.77201 8.55503 3.31201 9.21336C3.73535 9.73503 4.54535 10.0117 5.64868 10.0117H27.082C26.5257 9.0608 26.2383 7.97662 26.2503 6.87503C26.2482 5.27808 26.8042 3.73058 27.822 2.50003H6.87535C5.71503 2.50003 4.60223 2.96097 3.78176 3.78144C2.96128 4.60191 2.50035 5.71471 2.50035 6.87503Z"
              fill="#D2D2D2"/>
    </g>
    <defs>
        <clipPath id="clip0_107_138">
            <rect width="40" height="40" fill="white"/>
        </clipPath>
    </defs>
</svg>
