<svg width="40" height="40" viewBox="0 0 40 40" fill="none" xmlns="http://www.w3.org/2000/svg">
    <path d="M18.5742 20.2539C19.0299 19.5898 19.5898 19.0299 20.2539 18.5742L19.2383 16.1523L21.5625 15.1953L22.5586 17.6172C22.9492 17.5391 23.3464 17.5 23.75 17.5C24.1536 17.5 24.5508 17.5391 24.9414 17.6172L25.9375 15.1953L28.2617 16.1523L27.2461 18.5742C27.5846 18.7956 27.8906 19.043 28.1641 19.3164C28.4375 19.5898 28.6914 19.9023 28.9258 20.2539L31.3477 19.2383L32.3047 21.5625L29.8828 22.5586C29.9609 22.9492 30 23.3464 30 23.75C30 24.1536 29.9609 24.5508 29.8828 24.9414L32.3047 25.9375L31.3477 28.2617L28.9258 27.2461C28.7044 27.5846 28.457 27.8906 28.1836 28.1641C27.9102 28.4375 27.5977 28.6914 27.2461 28.9258L28.2617 31.3477L25.9375 32.3047L24.9414 29.8828C24.5508 29.9609 24.1536 30 23.75 30C23.3464 30 22.9492 29.9609 22.5586 29.8828L21.5625 32.3047L19.2383 31.3477L20.2539 28.9258C19.5898 28.4701 19.0299 27.9102 18.5742 27.2461L16.1523 28.2617L15.1953 25.9375L17.6172 24.9414C17.5391 24.5508 17.5 24.1536 17.5 23.75C17.5 23.3464 17.5391 22.9492 17.6172 22.5586L15.1953 21.5625L16.1523 19.2383L18.5742 20.2539ZM27.5 23.75C27.5 23.2292 27.4023 22.7409 27.207 22.2852C27.0117 21.8294 26.7448 21.4323 26.4062 21.0938C26.0677 20.7552 25.6706 20.4883 25.2148 20.293C24.7591 20.0977 24.2708 20 23.75 20C23.2292 20 22.7409 20.0977 22.2852 20.293C21.8294 20.4883 21.4323 20.7552 21.0938 21.0938C20.7552 21.4323 20.4883 21.8294 20.293 22.2852C20.0977 22.7409 20 23.2292 20 23.75C20 24.2708 20.0977 24.7591 20.293 25.2148C20.4883 25.6706 20.7552 26.0677 21.0938 26.4062C21.4323 26.7448 21.8294 27.0117 22.2852 27.207C22.7409 27.4023 23.2292 27.5 23.75 27.5C24.2578 27.5 24.7396 27.4023 25.1953 27.207C25.651 27.0117 26.0482 26.7448 26.3867 26.4062C26.7253 26.0677 26.9987 25.6641 27.207 25.1953C27.4154 24.7266 27.513 24.2448 27.5 23.75ZM5.21484 15.8008L7.55859 14.4336C7.51953 14.1992 7.5 13.9714 7.5 13.75C7.5 13.5286 7.51953 13.3008 7.55859 13.0664L5.21484 11.6992L6.46484 9.55078L8.82812 10.8984C9.20573 10.599 9.59635 10.3776 10 10.2344V7.5H12.5V10.2344C12.9036 10.3776 13.2943 10.599 13.6719 10.8984L16.0352 9.55078L17.2852 11.6992L14.9414 13.0664C14.9805 13.3008 15 13.5286 15 13.75C15 13.9714 14.9805 14.1992 14.9414 14.4336L17.2852 15.8008L16.0352 17.9492L13.6719 16.6016C13.4896 16.7448 13.3073 16.8685 13.125 16.9727C12.9427 17.0768 12.7344 17.1745 12.5 17.2656V20H10V17.2656C9.77865 17.1875 9.57682 17.0964 9.39453 16.9922C9.21224 16.888 9.02344 16.7578 8.82812 16.6016L6.46484 17.9492L5.21484 15.8008ZM11.25 11.875C10.7292 11.875 10.2865 12.0573 9.92188 12.4219C9.55729 12.7865 9.375 13.2292 9.375 13.75C9.375 14.2708 9.55729 14.7135 9.92188 15.0781C10.2865 15.4427 10.7292 15.625 11.25 15.625C11.7708 15.625 12.2135 15.4427 12.5781 15.0781C12.9427 14.7135 13.125 14.2708 13.125 13.75C13.125 13.2292 12.9427 12.7865 12.5781 12.4219C12.2135 12.0573 11.7708 11.875 11.25 11.875ZM37.5 0V40H0V0H37.5ZM35 2.5H2.5V37.5H35V2.5Z"
          fill="#D2D2D2"/>
</svg>
