<svg width="40" height="40" viewBox="0 0 40 40" fill="none" xmlns="http://www.w3.org/2000/svg">
    <path d="M28 15C28 15.394 27.9224 15.7841 27.7716 16.1481C27.6209 16.512 27.3999 16.8427 27.1213 17.1213C26.8427 17.3999 26.512 17.6209 26.1481 17.7716C25.7841 17.9224 25.394 18 25 18C24.606 18 24.2159 17.9224 23.8519 17.7716C23.488 17.6209 23.1573 17.3999 22.8787 17.1213C22.6001 16.8427 22.3791 16.512 22.2284 16.1481C22.0776 15.7841 22 15.394 22 15C22 14.2044 22.3161 13.4413 22.8787 12.8787C23.4413 12.3161 24.2044 12 25 12C25.7956 12 26.5587 12.3161 27.1213 12.8787C27.6839 13.4413 28 14.2044 28 15ZM26 15C26 14.7348 25.8946 14.4804 25.7071 14.2929C25.5196 14.1054 25.2652 14 25 14C24.7348 14 24.4804 14.1054 24.2929 14.2929C24.1054 14.4804 24 14.7348 24 15C24 15.2652 24.1054 15.5196 24.2929 15.7071C24.4804 15.8946 24.7348 16 25 16C25.2652 16 25.5196 15.8946 25.7071 15.7071C25.8946 15.5196 26 15.2652 26 15ZM6 12C6 10.4087 6.63214 8.88258 7.75736 7.75736C8.88258 6.63214 10.4087 6 12 6H28C29.5913 6 31.1174 6.63214 32.2426 7.75736C33.3679 8.88258 34 10.4087 34 12V18.006C33.318 18.038 32.64 18.19 32 18.464V12C32 10.9391 31.5786 9.92172 30.8284 9.17157C30.0783 8.42143 29.0609 8 28 8H12C10.9391 8 9.92172 8.42143 9.17157 9.17157C8.42143 9.92172 8 10.9391 8 12V29.652C8.00033 29.7306 8.02382 29.8074 8.06754 29.8728C8.11127 29.9381 8.17328 29.9891 8.24584 30.0194C8.3184 30.0498 8.39828 30.058 8.4755 30.0432C8.55272 30.0283 8.62385 29.991 8.68 29.936L10.294 28.344L10.29 28.338L12.386 26.278L12.798 25.874L17.898 20.864C18.459 20.3131 19.2138 20.0045 20 20.0045C20.7862 20.0045 21.541 20.3131 22.102 20.864L25.592 24.292L24.178 25.708L20.7 22.29C20.5131 22.1068 20.2618 22.0041 20 22.0041C19.7382 22.0041 19.4869 22.1068 19.3 22.29L13.788 27.704L10.086 31.36C8.57 32.856 6 31.78 6 29.652V12ZM6.8 34.07C7.538 34.438 8.46 34.74 9.234 34.57C9.736 34.458 10.388 34.184 11.12 33.876C12.89 33.13 15.126 32.19 16.844 32.882C18.118 33.394 18.012 34.844 17.654 35.542C17.584 35.674 17.638 35.862 17.784 35.896C18.5154 36.0447 19.2623 36.1038 20.008 36.072C20.0161 35.9776 20.0315 35.884 20.054 35.792L20.804 32.796C20.9958 32.0232 21.3956 31.3177 21.96 30.756L31.62 21.096C31.9664 20.7444 32.3789 20.4648 32.8339 20.2733C33.2888 20.0819 33.7771 19.9824 34.2707 19.9805C34.7643 19.9787 35.2533 20.0746 35.7097 20.2627C36.166 20.4508 36.5806 20.7274 36.9296 21.0764C37.2785 21.4255 37.5549 21.8402 37.7428 22.2966C37.9307 22.753 38.0265 23.2421 38.0245 23.7357C38.0225 24.2293 37.9228 24.7176 37.7311 25.1725C37.5395 25.6273 37.2598 26.0398 36.908 26.386L27.248 36.044C26.6853 36.607 25.9802 37.0066 25.208 37.2L22.764 37.81C20.522 38.466 17.176 38.254 16.138 37.444C15.24 36.744 15.204 35.67 15.506 34.956C15.574 34.796 15.454 34.59 15.284 34.616C14.294 34.756 13.484 35.116 12.684 35.47C11.514 35.99 10.372 36.496 8.732 36.292C7.31 36.116 6.518 35.374 6.082 34.642C5.838 34.234 6.374 33.858 6.8 34.07Z"
          fill="#D2D2D2"/>
</svg>
