<svg width="40" height="40" viewBox="0 0 40 40" fill="none" xmlns="http://www.w3.org/2000/svg">
    <path d="M34.6672 12.9938C36.4018 16.6216 36.7311 20.7633 35.5915 24.6196C34.452 28.476 31.9243 31.7735 28.4965 33.8758C25.0686 35.9781 20.9836 36.7361 17.0297 36.0036C13.0758 35.2711 9.53338 33.0999 7.08615 29.9092C4.63891 26.7184 3.46033 22.7343 3.77787 18.7257C4.09541 14.7171 5.88656 10.9682 8.80563 8.20251C11.7247 5.43686 15.5647 3.85051 19.5847 3.74963C23.6046 3.64875 27.5193 5.0405 30.5735 7.65626L34.1156 4.11251C34.3502 3.87796 34.6683 3.74619 35 3.74619C35.3317 3.74619 35.6498 3.87796 35.8844 4.11251C36.1189 4.34706 36.2507 4.66518 36.2507 4.99689C36.2507 5.32859 36.1189 5.64671 35.8844 5.88126L20.8844 20.8813C20.6498 21.1158 20.3317 21.2476 20 21.2476C19.6683 21.2476 19.3502 21.1158 19.1156 20.8813C18.8811 20.6467 18.7493 20.3286 18.7493 19.9969C18.7493 19.6652 18.8811 19.3471 19.1156 19.1125L23.4469 14.7813C22.2731 14.0049 20.8716 13.6475 19.4693 13.7668C18.0671 13.8861 16.7462 14.4752 15.7204 15.4386C14.6945 16.4021 14.0239 17.6836 13.8171 19.0756C13.6102 20.4676 13.8792 21.8887 14.5805 23.1089C15.2818 24.329 16.3744 25.2767 17.6813 25.7986C18.9883 26.3205 20.4332 26.3861 21.782 25.9846C23.1309 25.5832 24.3047 24.7383 25.1136 23.5866C25.9225 22.435 26.3191 21.0441 26.2391 19.6391C26.2298 19.4749 26.253 19.3106 26.3073 19.1554C26.3616 19.0002 26.4459 18.8572 26.5555 18.7346C26.665 18.612 26.7976 18.5122 26.9458 18.4408C27.0939 18.3695 27.2546 18.328 27.4188 18.3188C27.7503 18.3001 28.0756 18.4139 28.3232 18.6352C28.4458 18.7447 28.5457 18.8773 28.617 19.0254C28.6884 19.1736 28.7298 19.3343 28.7391 19.4984C28.853 21.4872 28.285 23.4552 27.1289 25.0774C25.9728 26.6995 24.2978 27.8787 22.3807 28.4199C20.4637 28.9611 18.4194 28.832 16.5856 28.0539C14.7519 27.2758 13.2385 25.8954 12.2957 24.1407C11.3528 22.386 11.0369 20.3621 11.4001 18.4035C11.7633 16.4449 12.784 14.6689 14.2934 13.369C15.8027 12.069 17.7105 11.323 19.7012 11.2542C21.692 11.1855 23.6467 11.798 25.2422 12.9906L28.7969 9.43595C26.1919 7.27313 22.8797 6.14901 19.4964 6.2795C16.113 6.40999 12.8972 7.78589 10.4666 10.1429C8.03589 12.5 6.56175 15.6719 6.32727 19.0496C6.0928 22.4273 7.11452 25.7726 9.1962 28.4429C11.2779 31.1131 14.2727 32.9202 17.6056 33.5169C20.9384 34.1136 24.3742 33.4579 27.253 31.6758C30.1319 29.8936 32.2508 27.1107 33.2028 23.8615C34.1548 20.6123 33.8728 17.1259 32.411 14.0719C32.268 13.7727 32.2497 13.429 32.3602 13.1163C32.4707 12.8036 32.7008 12.5477 33 12.4047C33.2992 12.2617 33.643 12.2435 33.9556 12.3539C34.2683 12.4644 34.5242 12.6946 34.6672 12.9938Z"
          fill="#D2D2D2"/>
</svg>
