<svg width="40" height="40" viewBox="0 0 40 40" fill="none" xmlns="http://www.w3.org/2000/svg">
    <path d="M21.6667 31.25H10.0001C8.78451 31.25 7.61872 30.7671 6.75917 29.9076C5.89963 29.048 5.41675 27.8822 5.41675 26.6667V13.3333C5.41675 12.1178 5.89963 10.952 6.75917 10.0924C7.61872 9.23289 8.78451 8.75 10.0001 8.75H21.6667C22.8823 8.75 24.0481 9.23289 24.9077 10.0924C25.7672 10.952 26.2501 12.1178 26.2501 13.3333V26.6667C26.2501 27.8822 25.7672 29.048 24.9077 29.9076C24.0481 30.7671 22.8823 31.25 21.6667 31.25ZM10.0001 11.25C9.44755 11.25 8.91764 11.4695 8.52694 11.8602C8.13624 12.2509 7.91675 12.7808 7.91675 13.3333V26.6667C7.91675 27.2192 8.13624 27.7491 8.52694 28.1398C8.91764 28.5305 9.44755 28.75 10.0001 28.75H21.6667C22.2193 28.75 22.7492 28.5305 23.1399 28.1398C23.5306 27.7491 23.7501 27.2192 23.7501 26.6667V13.3333C23.7501 12.7808 23.5306 12.2509 23.1399 11.8602C22.7492 11.4695 22.2193 11.25 21.6667 11.25H10.0001Z"
          fill="#D2D2D2"/>
    <path d="M33.3333 27.9166C33.1044 27.9131 32.8804 27.8499 32.6833 27.7333L24.35 22.7333C24.1669 22.6219 24.0156 22.4652 23.9105 22.2784C23.8055 22.0916 23.7502 21.881 23.75 21.6666V18.3333C23.7502 18.119 23.8055 17.9083 23.9105 17.7215C24.0156 17.5347 24.1669 17.3781 24.35 17.2666L32.6833 12.2666C32.8747 12.1521 33.0936 12.0916 33.3167 12.0916C33.5397 12.0916 33.7586 12.1521 33.95 12.2666C34.1417 12.3754 34.3012 12.5328 34.4125 12.7231C34.5237 12.9133 34.5826 13.1296 34.5833 13.35V26.6833C34.5826 26.9037 34.5237 27.12 34.4125 27.3102C34.3012 27.5005 34.1417 27.6579 33.95 27.7666C33.7619 27.8719 33.5487 27.9237 33.3333 27.9166ZM26.25 20.9666L32.0833 24.4666V15.5333L26.25 19.0333V20.9666Z"
          fill="#D2D2D2"/>
</svg>
